<?xml version="1.0" encoding="utf-8"?><!DOCTYPE svg  PUBLIC '-//W3C//DTD SVG 1.1//EN'  'http://www.w3.org/Graphics/SVG/1.1/DTD/svg11.dtd'><svg enable_background="new 0 0 1000 1182" height="1182px" pretty_print="False" style="stroke-linejoin: round; stroke:#000; fill: none;" version="1.1" viewBox="0 0 1000 1182" width="1000px" xmlns="http://www.w3.org/2000/svg" xmlns:xlink="http://www.w3.org/1999/xlink"><defs><style type="text/css"><![CDATA[path { fill-rule: evenodd; }]]></style></defs><metadata><views><view h="1182.43099266" padding="0" w="1000"><proj flip="auto" id="robinson" lon0="92.8316959698"/><bbox h="482.16" w="408.12" x="985.45" y="-595.42"/></view></views></metadata><g class="" id="layer_0"><path d="M182.599419,228.450331L182.490112,228.995104L190.237315,253.636878L218.674520,256.356716L229.329549,282.900523L248.065447,296.590988L255.320032,307.432302L269.510499,308.798664L277.586299,298.819273L286.881416,316.411961L295.311387,315.845660L295.642253,316.067872L295.686281,316.060039L301.559763,311.085128L298.843707,297.052243L292.689903,287.453870L292.457319,287.233957L292.326589,287.147010L278.673489,287.042767L279.521588,272.293620L284.285358,272.740169L284.362103,272.554869L284.194177,272.351814L276.004075,246.110838L277.721134,224.739549L285.539932,210.533197L285.180085,210.404041L284.844974,210.388911L268.009710,203.710512L265.700093,196.248198L253.430546,188.324473L252.590370,189.070361L252.452367,189.600936L256.276125,193.724563L255.940067,194.729562L255.885433,194.898895L255.906794,195.867970L256.449829,196.508987L256.606038,196.923056L256.169336,197.889358L256.284908,198.085599L256.348497,198.611641L254.587710,221.965592L247.081972,218.776798L234.706139,237.127124L208.965956,236.280141L182.726121,228.114296L182.599419,228.450331Z " data-name-1="Haryana"/><path d="M161.284623,218.152734L159.858031,225.672486L166.726507,227.405949L180.761862,228.395925L182.599419,228.450331L182.726121,228.114296L208.965956,236.280141L234.706139,237.127124L247.081972,218.776798L254.587710,221.965592L256.348497,198.611641L256.284908,198.085599L255.969606,198.121464L251.641861,195.655053L251.650936,194.640607L255.297662,194.782420L255.885433,194.898895L255.940067,194.729562L256.276125,193.724563L252.452367,189.600936L252.590370,189.070361L251.932115,188.603323L246.169124,185.071540L242.306092,173.794346L228.279406,172.707512L212.737925,146.414965L201.521220,140.286014L209.649832,126.976135L206.211526,120.991532L206.060164,120.773191L206.042199,120.810077L202.643712,124.863235L189.333140,130.556284L189.665554,130.786184L190.511105,136.472150L168.486089,149.301486L171.457267,177.890932L178.713159,182.294396L169.242230,190.177586L160.981258,216.949749L161.284623,218.152734Z M207.075295,204.872967L207.634417,204.509701L207.634417,204.509701L207.075295,204.872967Z M197.454727,182.835949L197.759574,183.215589L197.759574,183.215589L197.454727,182.835949Z M203.791779,188.795719L204.685533,189.353188L204.685533,189.353188L203.791779,188.795719Z M195.511324,208.133066L195.801412,208.424503L195.801412,208.424503L195.511324,208.133066Z M222.558988,229.565210L222.390912,229.104310L222.390912,229.104310L222.558988,229.565210Z M220.491902,224.297369L220.373364,223.935656L220.373364,223.935656L220.491902,224.297369Z M187.701732,224.565751L188.238577,225.225211L188.238577,225.225211L187.701732,224.565751Z M195.187950,181.878715L195.263516,181.988267L195.263516,181.988267L195.187950,181.878715Z M207.735850,221.368878L207.921155,221.439594L207.921155,221.439594L207.735850,221.368878Z " data-name-1="Punjab"/><path d="M230.389143,812.219322L239.327876,824.946705L248.432195,846.204127L248.442188,846.205615L254.940023,839.348188L255.449117,834.364996L246.767989,815.225969L246.662441,815.223933L246.564475,815.432038L241.062173,815.468960L239.832082,811.478290L230.385701,812.182439L230.389143,812.219322Z M235.868260,826.360748L235.737490,826.451899L235.963520,826.417756L235.868260,826.360748Z M235.427610,827.318844L234.683558,827.467159L235.463363,827.603845L235.427610,827.318844Z " data-name-1="Goa"/><path d="M454.154007,582.043295L454.210934,582.100829L457.718729,623.289764L449.809123,626.738090L452.675002,644.234309L456.629523,643.682629L468.970847,654.608404L470.576841,662.889992L460.212498,661.385947L453.031106,672.594473L452.662870,688.736300L453.083537,689.281874L453.225306,689.465324L472.366647,711.706492L475.278115,710.872818L497.326166,726.823186L497.341501,726.695786L497.238997,726.385939L500.324503,709.045976L522.530653,681.380208L517.863592,660.499855L503.490140,635.700030L516.811289,636.737211L521.527372,643.637458L533.064310,636.878826L522.438402,634.647751L519.963086,602.614060L525.349707,589.763358L545.197922,590.056035L556.278473,545.057275L567.588913,539.487540L566.353845,532.873038L566.688702,533.199349L566.762368,533.040500L577.397920,519.253765L577.197730,514.554665L561.395677,489.395641L533.710680,468.380399L533.557843,468.311389L533.363708,468.101067L530.308750,473.406986L529.895503,475.239367L516.596023,473.911729L516.149758,473.989821L515.832299,474.025852L502.264259,480.629466L473.762882,477.030122L481.344499,490.847514L497.912409,500.302664L497.634943,507.712514L482.496022,529.641445L470.098570,534.078539L462.442152,545.170945L454.255734,581.893081L454.154007,582.043295Z M502.080826,606.163225L502.436687,606.476335L502.436687,606.476335L502.080826,606.163225Z " data-name-1="Chhattisgarh"/><path d="M374.236602,1117.077596L374.301737,1087.750419L382.798201,1067.852662L373.811428,1063.032725L374.565172,1033.215282L358.781785,1021.976123L357.200870,1004.093931L344.340273,996.672620L337.207968,986.892832L342.548476,979.551533L342.364393,979.067169L342.141152,978.898863L330.128677,966.286967L317.576090,961.899288L295.642896,939.503250L283.164826,934.109791L283.166088,934.127135L287.793409,944.641202L298.371832,964.083634L298.372309,964.090642L301.649782,959.122910L301.219117,963.057547L301.224327,963.057351L321.341015,999.730548L334.867962,1034.099996L344.163695,1069.084729L353.199066,1091.834701L374.236277,1117.070666L374.236602,1117.077596Z M348.030952,1065.595360L349.068341,1066.051385L348.819634,1065.903161L348.030952,1065.595360Z M347.950781,1065.595360L347.085736,1065.926065L347.520936,1066.564649L347.950781,1065.595360Z M347.192888,1065.116393L346.073040,1065.937418L346.180434,1066.256651L347.192888,1065.116393Z M346.878957,1066.005814L346.319459,1066.234022L346.260003,1066.245337L346.878957,1066.005814Z M346.022937,1062.755970L345.995874,1062.995415L345.988130,1063.040947L346.022937,1062.755970Z M345.093665,1054.340191L345.103074,1054.511239L345.133097,1054.511239L345.093665,1054.340191Z M344.160796,1052.333264L344.222497,1053.815654L344.973445,1054.157672L344.160796,1052.333264Z M344.950668,1054.294346L344.893155,1054.340387L345.024404,1054.362937L344.950668,1054.294346Z M343.348748,1054.340191L343.338162,1054.693876L343.479803,1055.081308L343.348748,1054.340191Z M345.282896,1053.770005L345.209027,1053.884050L345.279255,1053.883893L345.282896,1053.770005Z M345.248472,1053.690138L345.126366,1053.838518L345.176496,1053.838518L345.248472,1053.690138Z M342.569724,1050.405969L342.827900,1051.808688L342.946724,1051.591873L342.569724,1050.405969Z M340.929467,1047.065392L340.932702,1047.304362L340.982834,1047.304519L340.929467,1047.065392Z M340.785374,1045.925220L340.602484,1046.062011L340.512483,1046.244490L340.785374,1045.925220Z M339.950661,1046.597782L340.669583,1047.977160L340.559475,1047.441153L339.950661,1046.597782Z M340.636651,1045.959359L340.540253,1046.027833L340.557483,1046.153231L340.636651,1045.959359Z M340.345258,1046.483972L340.322265,1046.609253L340.386149,1046.677883L340.345258,1046.483972Z M339.676831,1042.982770L339.880954,1043.222487L339.973346,1043.439261L339.676831,1042.982770Z M301.063617,966.581181L301.134366,966.740913L301.129727,966.672440L301.063617,966.581181Z M300.899338,966.375955L300.927133,966.489961L300.978711,966.512785L300.899338,966.375955Z M300.447254,965.611901L300.611056,966.113688L300.887107,966.341503L300.447254,965.611901Z M300.785220,964.106654L300.709891,964.175050L300.859977,964.175050L300.785220,964.106654Z M296.792652,960.309319L296.729098,960.400461L296.818702,960.400461L296.792652,960.309319Z M295.501141,960.594215L296.166508,962.270784L296.209272,962.019831L295.501141,960.594215Z M294.109173,956.660164L295.466499,960.525977L295.416190,960.229531L294.109173,956.660164Z M294.338293,957.218916L294.429834,957.390159L294.434466,957.310058L294.338293,957.218916Z M349.157498,1066.028756L349.110996,1066.096917L349.603091,1066.484821L349.157498,1066.028756Z M345.664040,1058.901607L345.678824,1058.798602L345.648873,1058.810112L345.664040,1058.901607Z M345.214920,1057.099825L345.281238,1057.396272L345.276873,1057.316288L345.214920,1057.099825Z M322.659116,1000.619761L322.412170,1000.836535L322.438698,1000.939304L322.659116,1000.619761Z " data-name-1="Kerala"/><path d="M180.951611,617.352200L180.090149,618.343914L180.006119,618.754253L180.017948,621.422010L180.018701,621.428977L181.550978,619.998735L180.343841,619.325612L180.949186,617.329812L180.951611,617.352200Z M109.879094,607.605095L111.186426,607.445252L111.990792,607.764467L112.297371,606.738564L112.295845,606.724161L111.420315,606.432499L110.078946,606.949521L109.877901,607.593823L109.879094,607.605095Z M109.219633,607.536680L109.251628,607.559459L109.329673,607.548030L109.716298,607.559459L109.748038,607.559302L109.564436,607.363217L109.218565,607.526582L109.219633,607.536680Z M101.878412,605.393447L104.134866,606.829913L105.857846,607.331280L109.075696,607.297308L109.061079,607.161731L108.197874,606.991400L108.108715,606.849013L108.352445,605.792504L108.343489,605.792504L108.299033,605.746868L108.289008,605.747025L108.317652,605.735596L108.341255,605.735518L109.564803,604.043478L103.477732,596.070741L101.871194,605.325111L101.878412,605.393447Z " data-name-1="Daman and Diu"/><path d="M979.050421,904.962688L978.368196,905.646777L979.031321,906.194385L979.050421,904.962688Z M967.793703,951.911350L968.511952,955.468899L969.162891,954.088773L967.793703,951.911350Z M950.171531,845.924809L949.280683,847.108917L949.294879,847.963159L950.171531,845.924809Z M947.893295,848.231201L947.836331,848.099843L947.814535,848.125762L947.893295,848.231201Z M947.883659,847.692455L947.796054,847.621118L947.787766,847.635370L947.883659,847.692455Z M947.853009,847.244230L947.702254,847.179118L947.680849,847.213456L947.853009,847.244230Z M947.447010,850.793061L947.419231,850.609865L947.400150,850.618243L947.447010,850.793061Z M943.572087,876.556304L943.183285,877.092100L944.140970,878.631440L943.572087,876.556304Z M944.047572,881.026286L944.023017,880.786755L943.931740,880.969124L944.047572,881.026286Z M943.559563,875.039201L943.511436,875.632237L943.572541,875.552524L943.559563,875.039201Z M943.083821,875.073459L943.095945,875.187587L943.214580,875.176116L943.083821,875.073459Z M942.499885,958.991601L942.458828,959.573725L942.611361,959.393047L942.499885,958.991601Z M940.559621,954.328294L941.488552,955.582591L941.569932,954.377154L940.559621,954.328294Z M940.983570,961.512797L941.627569,960.486435L940.334653,956.505011L940.983570,961.512797Z M938.729048,967.249161L940.206616,967.261806L938.475009,963.677686L938.729048,967.249161Z M937.925064,959.249796L940.385316,962.595535L939.306282,959.551097L937.925064,959.249796Z M940.169166,951.984247L939.836235,952.112426L940.214742,952.120021L940.169166,951.984247Z M938.762073,953.580054L938.564127,953.687286L938.508076,953.801997L938.762073,953.580054Z M938.604551,955.838399L938.610408,955.941795L938.654465,955.920380L938.604551,955.838399Z M937.653306,960.715190L938.241635,963.289668L938.507132,960.862277L937.653306,960.715190Z M938.071551,960.568415L938.015600,960.498611L938.018366,960.544142L938.071551,960.568415Z M936.922105,906.140200L936.953712,906.365241L937.133224,906.379649L936.922105,906.140200Z M931.694049,921.748929L934.622372,903.799387L928.871241,905.806553L931.694049,921.748929Z M936.830891,906.884503L936.643758,907.166979L936.757092,907.166783L936.830891,906.884503Z M936.420803,960.326154L936.555875,961.455559L936.669440,961.615175L936.420803,960.326154Z M936.561892,911.576727L936.454965,911.736424L936.531473,911.804743L936.561892,911.576727Z M936.602560,908.968324L936.567729,908.839869L936.548220,908.871111L936.602560,908.968324Z M936.409243,914.940858L936.367448,914.815379L936.321719,914.744085L936.409243,914.940858Z M927.154320,952.332490L934.457813,934.063045L930.994912,928.861685L927.154320,952.332490Z M935.809103,908.293984L935.776269,908.212198L935.783050,908.282787L935.809103,908.293984Z M935.694608,955.891722L935.302617,955.948333L935.258716,956.215142L935.694608,955.891722Z M935.605969,948.057780L935.086086,947.781104L934.963163,950.344396L935.605969,948.057780Z M935.347776,952.844184L934.804879,953.494706L935.081303,955.604750L935.347776,952.844184Z M933.594054,924.701331L934.794811,925.920682L934.832335,924.690760L933.594054,924.701331Z M934.783836,897.174000L934.163953,897.778341L934.138700,898.029380L934.783836,897.174000Z M934.902516,900.783210L934.804391,901.051279L934.920434,900.941342L934.902516,900.783210Z M934.450129,910.497175L934.397215,910.908927L934.624155,910.646615L934.450129,910.497175Z M934.628095,924.109449L934.560821,924.029347L934.577570,924.109449L934.628095,924.109449Z M934.309156,951.208053L934.520168,950.704423L934.346184,950.488861L934.309156,951.208053Z M934.320792,910.108874L934.246885,910.165565L934.295733,910.165447L934.320792,910.108874Z M932.966700,896.273047L931.729950,896.797676L933.505107,898.291577L932.966700,896.273047Z M933.582818,948.986074L933.590784,948.872617L933.525560,948.956516L933.582818,948.986074Z M931.937092,948.298320L932.726840,949.341834L933.081683,949.450280L931.937092,948.298320Z M933.253598,953.026742L933.316203,952.854324L933.221175,952.915399L933.253598,953.026742Z M933.166316,901.230200L933.087741,901.040825L933.057851,901.097282L933.166316,901.230200Z M933.160873,923.162783L933.116143,923.003165L933.047499,923.015027L933.160873,923.162783Z M933.040972,955.408921L932.958602,954.792382L932.834855,955.104880L933.040972,955.408921Z M933.032563,927.392045L932.969295,927.471678L933.010129,927.599466L933.032563,927.392045Z M932.309555,923.037265L931.974972,923.527746L933.053286,924.153768L932.309555,923.037265Z M932.617927,910.379369L932.655709,910.151353L932.587071,910.162668L932.617927,910.379369Z M932.607315,959.023939L932.628386,958.883977L932.604944,958.883037L932.607315,959.023939Z M932.603746,946.810096L932.577978,946.832725L932.636461,946.838519L932.603746,946.810096Z M932.472989,921.999651L932.495765,921.919744L932.400654,921.868378L932.472989,921.999651Z M932.235067,927.424892L932.140049,927.598526L932.219356,927.573939L932.235067,927.424892Z M931.969177,922.387283L931.850520,922.079401L931.810951,922.164789L931.969177,922.387283Z M931.816586,999.986745L931.685978,1000.238401L931.940075,1000.158105L931.816586,999.986745Z M931.836402,921.652813L931.847040,921.545775L931.681186,921.283033L931.836402,921.652813Z M931.110082,947.559748L931.273289,947.965268L931.697405,948.010995L931.110082,947.559748Z M931.607546,1000.213032L931.512466,1000.329151L931.545084,1000.363407L931.607546,1000.213032Z M931.608270,928.193617L931.576290,928.150277L931.531845,928.159752L931.608270,928.193617Z M924.924595,970.452034L921.788046,971.437677L929.961075,986.423619L929.374287,958.326125L924.924595,970.452034Z M931.429176,926.606681L931.330240,926.605859L931.319292,926.695906L931.429176,926.606681Z M930.543043,964.354632L930.355744,964.369783L930.519788,964.542670L930.543043,964.354632Z M930.437436,994.262664L930.033295,994.799058L930.515630,995.334513L930.437436,994.262664Z M930.514010,927.622290L930.518675,927.565326L930.446829,927.542501L930.514010,927.622290Z M929.779180,966.381358L929.592710,967.253741L930.397192,967.027532L929.779180,966.381358Z M929.868077,1006.880588L929.888922,1006.431498L929.700743,1006.501107L929.868077,1006.880588Z M929.816458,977.843807L929.751510,977.931230L929.832219,977.943131L929.816458,977.843807Z M929.719193,901.974937L929.666771,902.259841L929.797876,902.168814L929.719193,901.974937Z M927.104504,988.875702L929.632038,990.930333L928.814479,986.777104L927.104504,988.875702Z M927.895710,955.732380L929.526194,957.602785L929.310812,955.665394L927.895710,955.732380Z M929.538020,966.538546L929.607780,966.475201L929.552725,966.418316L929.538020,966.538546Z M929.189763,966.960898L928.994367,966.865998L928.937107,967.132180L929.189763,966.960898Z M929.194767,952.804212L929.123655,952.906864L929.182176,952.893984L929.194767,952.804212Z M928.982601,978.856581L928.747312,978.969881L928.890228,979.060709L928.982601,978.856581Z M928.621211,907.049565L928.640086,907.143136L928.689518,907.132017L928.621211,907.049565Z M928.665089,953.271197L928.310820,954.730798L928.511501,954.501182L928.665089,953.271197Z M928.624209,986.119893L928.502288,986.066962L928.521488,986.118209L928.624209,986.119893Z M928.445727,901.826632L928.445671,902.032019L928.517849,902.054649L928.445727,901.826632Z M928.539865,903.001758L928.266615,903.172340L928.449820,903.411750L928.539865,903.001758Z M928.037119,1008.653612L927.960833,1008.836051L928.447568,1009.081091L928.037119,1008.653612Z M924.637584,1025.815293L927.766478,1015.107802L924.999280,1010.364115L924.637584,1025.815293Z M928.273609,953.942899L928.262390,953.806108L928.221219,953.921679L928.273609,953.942899Z M927.704017,905.932033L926.939655,906.502114L927.408950,906.810038L927.704017,905.932033Z M927.590378,929.581470L927.491100,929.528773L927.507467,929.572740L927.590378,929.581470Z M927.494936,985.072669L927.547267,984.994251L927.531475,984.975537L927.494936,985.072669Z M927.156645,929.993492L927.110702,929.456149L927.026296,929.795624L927.156645,929.993492Z M927.017481,927.414596L927.000546,927.460559L927.021699,927.460637L927.017481,927.414596Z M926.972896,955.030572L926.991667,954.925806L926.883106,954.784787L926.972896,955.030572Z M926.949895,927.120613L926.876351,927.417845L926.914621,927.394942L926.949895,927.120613Z M926.698379,906.798645L926.869291,907.432150L926.923426,906.958460L926.698379,906.798645Z M926.869916,926.799499L926.711878,926.923763L926.759804,926.994195L926.869916,926.799499Z M926.859591,929.054658L926.773605,929.114559L926.833200,929.114559L926.859591,929.054658Z M926.506227,956.259539L926.492500,955.951230L926.465060,955.868232L926.506227,956.259539Z M926.102912,983.190061L926.085425,984.130875L926.453123,984.096423L926.102912,983.190061Z M926.043142,981.984357L925.696257,982.092724L926.336522,982.892755L926.043142,981.984357Z M926.111471,934.837326L926.185628,934.996004L926.213482,935.201858L926.111471,934.837326Z M926.145199,934.235895L926.090550,934.141542L926.100799,934.203439L926.145199,934.235895Z M925.644599,934.908346L925.707952,933.471832L925.034809,932.788340L925.644599,934.908346Z M925.989871,984.187917L925.861443,984.336178L926.096578,984.708534L925.989871,984.187917Z M926.045871,933.813616L925.753971,932.798637L925.652188,932.775616L926.045871,933.813616Z M925.937460,929.923334L925.863785,929.991926L925.903607,929.991926L925.937460,929.923334Z M925.862581,930.742679L925.835760,930.674205L925.807552,930.913885L925.862581,930.742679Z M925.793515,929.594272L925.463076,929.810776L925.158914,930.757439L925.793515,929.594272Z M925.712174,933.275256L925.651991,933.183683L925.656760,933.239512L925.712174,933.275256Z M925.697399,983.896954L925.331150,983.034400L925.260300,983.689146L925.697399,983.896954Z M925.625963,932.112522L925.568841,932.133820L925.607660,932.134838L925.625963,932.112522Z M925.596475,932.351067L925.566090,932.443227L925.594334,932.442718L925.596475,932.351067Z M925.410418,929.193722L924.086718,924.350266L923.064514,930.322358L925.410418,929.193722Z M925.214124,942.867217L925.036558,943.492332L925.234223,943.643453L925.214124,942.867217Z M924.957046,960.241198L924.981190,960.136784L924.940660,960.177500L924.957046,960.241198Z M924.760025,990.084811L924.852305,989.806767L924.722709,989.893602L924.760025,990.084811Z M924.911949,960.465098L924.906225,960.345455L924.881245,960.453040L924.911949,960.465098Z M924.811740,983.038903L924.766904,982.856659L924.746961,982.982018L924.811740,983.038903Z M924.202662,966.062441L924.457952,968.046493L924.744124,967.636042L924.202662,966.062441Z M924.474584,968.969692L924.621111,968.445668L924.391509,968.571026L924.474584,968.969692Z M923.424715,981.366099L923.281541,983.141554L924.080703,983.038159L923.424715,981.366099Z M924.532184,982.700372L924.449881,982.802475L924.479004,982.819310L924.532184,982.700372Z M923.722028,966.067648L923.790114,966.027049L923.772911,965.847232L923.722028,966.067648Z M923.529303,933.514232L923.574657,933.341108L923.520598,933.305128L923.529303,933.514232Z M923.423002,926.150144L923.366810,926.103398L923.372079,926.151828L923.423002,926.150144Z M923.435875,976.525272L923.413566,976.372626L923.375232,976.432095L923.435875,976.525272Z M923.195599,967.143612L923.105188,967.243171L923.339179,967.379296L923.195599,967.143612Z M923.312130,925.944524L923.348251,925.990996L923.344407,925.967075L923.312130,925.944524Z M914.119529,1006.860465L913.881908,1007.265236L914.050211,1007.205259L914.119529,1006.860465Z M912.067565,984.408567L913.790840,982.155482L911.770201,981.960475L912.067565,984.408567Z M980.428818,1175.242130L986.362870,1170.417217L981.126452,1160.697846L980.428818,1175.242130Z M980.870800,1176.392019L980.862025,1176.591495L980.923205,1176.521551L980.870800,1176.392019Z M979.045964,1153.830191L978.832616,1153.978300L978.973430,1154.172156L979.045964,1153.830191Z M977.682030,1161.823931L977.217964,1160.900238L977.414583,1161.801184L977.682030,1161.823931Z M976.167071,1153.522170L976.006401,1153.909903L976.245009,1154.058109L976.167071,1153.522170Z M974.033161,1150.728112L973.902381,1150.728112L973.990817,1150.820919L974.033161,1150.728112Z M971.985412,1113.088353L971.907553,1112.957550L971.949734,1113.076921L971.985412,1113.088353Z M969.668124,1128.137938L969.465121,1130.874573L970.985687,1132.231703L969.668124,1128.137938Z M970.617428,1105.410554L970.513677,1105.441874L970.516691,1105.493084L970.617428,1105.410554Z M969.088745,1127.327982L967.203351,1120.371991L966.091628,1122.025492L969.088745,1127.327982Z M964.825992,1133.269421L961.977654,1128.886505L961.306846,1131.171142L964.825992,1133.269421Z M962.504700,1133.129652L962.467765,1133.201043L962.541334,1133.224926L962.504700,1133.129652Z M962.424423,1132.937107L962.395080,1132.960500L962.420913,1133.039741L962.424423,1132.937107Z M957.844059,1118.387586L958.078197,1120.223687L958.313806,1120.132465L957.844059,1118.387586Z M956.306118,1121.386901L953.853103,1117.772016L954.298684,1115.011798L956.306118,1121.386901Z M950.438739,1109.857935L950.961258,1110.918493L950.972134,1110.576432L950.438739,1109.857935Z M940.532052,1083.025557L940.445458,1083.082443L940.448298,1083.128288L940.532052,1083.025557Z M940.186562,1083.276395L940.031537,1083.367616L940.150646,1083.346201L940.186562,1083.276395Z M939.799879,1083.356145L939.923514,1083.403400L939.991576,1083.367616L939.799879,1083.356145Z " data-name-1="Andaman and Nicobar"/><path d="M664.875853,545.743207L664.802518,545.677839L638.646309,531.445498L639.888067,549.938920L608.781487,551.849498L605.982220,543.894505L593.728216,536.435733L577.864682,540.732848L566.944802,533.222758L566.688702,533.199349L566.353845,532.873038L567.588913,539.487540L556.278473,545.057275L545.197922,590.056035L525.349707,589.763358L519.963086,602.614060L522.438402,634.647751L533.064310,636.878826L530.826532,646.417163L521.527372,643.637458L516.811289,636.737211L503.490140,635.700030L517.863592,660.499855L522.530653,681.380208L500.324503,709.045976L497.238997,726.385939L497.341501,726.695786L497.668122,726.633065L500.966355,726.859284L505.801335,725.963805L509.223716,723.924393L510.274970,723.133688L510.400033,723.001121L530.579574,713.620024L528.399286,710.723420L531.385461,698.839649L531.149479,698.795802L531.015591,698.728464L531.149479,698.795802L531.385461,698.839649L554.603681,696.544162L552.260071,692.166901L561.839385,677.319203L573.418639,675.901369L577.094972,681.712573L610.066926,673.770364L610.064857,673.753688L622.195751,660.720242L640.824209,647.226882L665.707486,636.214194L681.176003,604.167939L674.100510,588.253477L686.284684,573.074244L695.163960,570.674934L695.191664,570.636969L684.516510,556.507052L676.664405,558.865274L673.931834,551.155989L664.803984,545.950818L664.875853,545.743207Z M577.613940,555.732142L577.220307,555.654565L577.220307,555.654565L577.613940,555.732142Z M529.802542,648.110584L529.976258,648.384824L529.976258,648.384824L529.802542,648.110584Z M532.946376,656.706630L533.686487,656.993170L533.686487,656.993170L532.946376,656.706630Z M541.987195,664.702669L542.026919,664.803274L542.026919,664.803274L541.987195,664.702669Z M570.235146,616.546790L569.741774,615.956178L569.741774,615.956178L570.235146,616.546790Z M664.004433,589.286026L664.376477,589.322973L664.376477,589.322973L664.004433,589.286026Z M606.792259,587.168403L607.006527,587.726517L607.006527,587.726517L606.792259,587.168403Z M598.248846,663.396144L596.912965,662.888661L596.912965,662.888661L598.248846,663.396144Z M626.159110,623.265967L626.096069,623.810561L626.096069,623.810561L626.159110,623.265967Z M607.834654,569.984126L607.783611,569.727607L607.783611,569.727607L607.834654,569.984126Z M566.739870,591.029406L567.065163,591.281379L567.065163,591.281379L566.739870,591.029406Z M519.840241,690.210401L520.060340,690.637749L520.060340,690.637749L519.840241,690.210401Z M622.178758,627.789557L621.847926,628.183546L621.847926,628.183546L622.178758,627.789557Z M621.583127,629.542038L621.985807,630.446659L621.985807,630.446659L621.583127,629.542038Z M626.810718,629.225155L627.048886,629.250283L627.048886,629.250283L626.810718,629.225155Z M652.383529,593.578801L651.659478,593.344049L651.659478,593.344049L652.383529,593.578801Z M569.621145,619.974468L569.734512,619.848908L569.734512,619.848908L569.621145,619.974468Z M659.586749,586.714085L660.053496,586.797449L660.053496,586.797449L659.586749,586.714085Z M586.515605,601.452665L587.467441,602.126943L587.467441,602.126943L586.515605,601.452665Z M590.158903,654.551723L589.691841,654.360150L589.691841,654.360150L590.158903,654.551723Z M682.956916,574.288886L682.839993,574.300314L682.972926,574.482624L682.956916,574.288886Z M683.007913,603.709861L682.457785,603.056874L682.625792,603.488650L683.007913,603.709861Z M610.499215,674.038755L611.689599,674.777379L611.694401,674.778789L612.249088,673.149417L611.866624,673.422818L610.575694,674.038755L610.499215,674.038755Z M611.828494,673.354625L611.733893,673.548480L611.793120,673.468699L611.828494,673.354625Z M611.327557,673.149417L611.385466,673.537049L611.637540,673.491404L611.327557,673.149417Z M668.006072,629.441916L667.608069,629.685684L667.800753,629.857982L668.006072,629.441916Z M667.767678,630.513824L667.829253,630.684870L667.900505,630.547564L667.767678,630.513824Z M666.046486,635.074157L665.874007,635.119327L665.993233,635.199567L666.046486,635.074157Z M665.219385,638.049483L665.431388,637.794512L665.194247,638.003765L665.219385,638.049483Z M664.327956,637.730084L664.227096,637.946774L664.481545,637.923994L664.327956,637.730084Z M663.062437,637.034846L663.007454,636.533433L662.896815,636.362932L663.062437,637.034846Z M662.315035,635.450385L662.463619,635.758429L662.493239,635.758429L662.315035,635.450385Z M662.477896,636.206366L662.159398,635.393474L662.001272,635.780896L662.477896,636.206366Z M661.889308,634.982958L661.869868,635.062650L662.021173,635.085665L661.889308,634.982958Z M661.175125,635.484595L661.088870,634.834612L660.370966,634.481322L661.175125,635.484595Z M661.544169,634.914539L661.653409,635.074157L661.677481,635.028597L661.544169,634.914539Z M661.308490,634.618082L661.180097,634.697852L661.224148,634.732140L661.308490,634.618082Z M685.286135,606.443771L685.280135,605.969880L685.252422,605.927924L685.286135,606.443771Z M683.228841,607.596641L683.413960,607.018014L683.246281,607.147954L683.228841,607.596641Z M676.130139,608.889472L682.345961,605.034154L676.567738,605.661233L676.130139,608.889472Z M681.967559,604.555567L681.841011,604.646760L682.075582,604.703824L681.967559,604.555567Z M678.128137,604.817796L678.223657,604.943118L678.226037,604.886210L678.128137,604.817796Z M677.734179,604.601203L677.973147,604.840575L677.871972,604.669617L677.734179,604.601203Z M677.145873,616.468590L677.095962,617.152667L677.236757,617.631420L677.145873,616.468590Z M677.281352,620.891745L677.293610,620.755069L677.273514,620.755069L677.281352,620.891745Z M677.144758,620.750607L677.057989,619.159034L676.984074,619.044903L677.144758,620.750607Z M677.227176,617.801285L677.231744,617.676744L677.183213,617.793066L677.227176,617.801285Z M675.827753,608.260668L675.602252,608.579649L675.603560,608.950294L675.827753,608.260668Z M664.568518,638.528190L664.394310,638.568585L664.370090,638.619392L664.568518,638.528190Z M662.515000,636.704019L662.534097,636.932294L662.548216,636.806649L662.515000,636.704019Z M662.033397,635.992026L662.042182,636.179984L662.168720,636.009014L662.033397,635.992026Z M660.639621,635.655565L660.450959,635.803990L660.490361,635.803990L660.639621,635.655565Z M660.354097,635.279337L660.242634,635.336405L660.454646,635.370928L660.354097,635.279337Z M659.942585,635.621277L659.965748,635.723985L660.148133,635.758429L659.942585,635.621277Z M660.104072,640.375078L660.095357,640.306735L660.016266,640.306735L660.104072,640.375078Z " data-name-1="Orissa"/><path d="M467.929943,1007.116936L466.324714,996.434902L463.660011,985.465069L463.651708,972.978391L463.649504,972.947227L459.895155,970.149521L464.604663,967.522194L464.599337,967.447887L474.666749,940.638380L475.192783,941.368380L477.022147,906.462297L476.994976,906.462297L468.815695,902.946320L418.556945,923.293272L410.292255,939.880975L403.886285,934.308089L403.903388,934.186213L403.601753,934.084421L392.605023,929.022594L382.908585,950.559449L378.286404,954.688007L377.510261,974.838060L358.973670,974.223795L357.304675,978.847576L342.654333,979.180078L342.364393,979.067169L342.548476,979.551533L337.207968,986.892832L344.340273,996.672620L357.200870,1004.093931L358.781785,1021.976123L374.565172,1033.215282L373.811428,1063.032725L382.798201,1067.852662L374.301737,1087.750419L374.236602,1117.077596L374.236812,1117.082059L389.838176,1125.885582L408.919573,1113.604010L412.011533,1093.283005L421.900799,1083.065412L445.799632,1076.440027L439.551772,1060.019156L449.086085,1045.605989L447.836565,1039.710404L470.525155,1035.057803L468.262694,1014.303935L468.229134,1013.778464L463.218711,1008.789071L463.652090,1006.580895L467.919818,1007.117798L467.929943,1007.116936Z M469.209401,954.767287L469.072618,954.812858L469.007841,955.018122L469.209401,954.767287Z M391.471924,1126.045122L391.396158,1126.136500L391.476415,1126.136500L391.471924,1126.045122Z M466.654618,996.423470L466.603247,996.560573L466.663000,996.549063L466.654618,996.423470Z M466.221537,996.389331L466.128250,996.491943L466.264192,996.434902L466.221537,996.389331Z M460.105824,1072.392404L460.102558,1072.403248L460.108069,1072.403248L460.105824,1072.392404Z M460.081769,1072.471605L460.081390,1072.464676L460.075707,1072.471605L460.081769,1072.471605Z M460.045012,1072.232513L460.047948,1072.220689L460.033902,1072.220807L460.045012,1072.232513Z M452.370669,1074.752323L454.372539,1079.518950L453.105766,1077.591564L452.370669,1074.752323Z M449.666332,1078.195894L449.818158,1078.401434L449.905828,1078.355863L449.666332,1078.195894Z M449.170875,1077.933898L448.765848,1078.048061L448.539986,1078.332960L449.170875,1077.933898Z M447.911122,1078.013608L447.993796,1078.435691L447.906879,1078.310018L447.911122,1078.013608Z M443.886941,1079.689999L443.511161,1080.168381L443.876328,1080.054922L443.886941,1079.689999Z M440.226327,1080.465260L440.227364,1080.682155L440.354081,1080.613681L440.226327,1080.465260Z M439.263000,1080.659330L437.786950,1080.830184L437.770189,1080.898736L439.263000,1080.659330Z M435.228254,1081.206656L434.854393,1081.719804L434.775443,1081.753826L435.228254,1081.206656Z M431.739069,1081.822418L431.711762,1081.879460L431.707853,1081.993506L431.739069,1081.822418Z M430.497198,1081.867989L430.415820,1082.039078L430.515533,1082.027685L430.497198,1081.867989Z M426.405163,1083.624171L426.166540,1084.046215L426.433274,1083.966348L426.405163,1083.624171Z M423.245519,1084.411060L423.311746,1084.718941L423.371313,1084.513674L423.245519,1084.411060Z M423.015461,1082.700528L422.908212,1082.757492L422.911802,1082.825967L423.015461,1082.700528Z M477.315400,906.028971L477.300008,906.199984L477.399612,906.199710L477.315400,906.028971Z M464.054122,1034.476307L464.405730,1034.658629L464.419900,1034.556016L464.054122,1034.476307Z M464.031865,1035.274499L464.057057,1035.354326L464.145714,1035.331502L464.031865,1035.274499Z M463.949958,1035.240360L463.873003,1035.297402L463.954086,1035.308755L463.949958,1035.240360Z M463.690810,1034.441894L463.766560,1034.692924L463.823139,1034.635961L463.690810,1034.441894Z M463.580590,1034.932405L463.490967,1034.943759L463.588163,1035.057803L463.580590,1034.932405Z M463.241487,1034.464875L463.082771,1034.658629L463.443047,1034.647354L463.241487,1034.464875Z M461.549452,1033.507029L461.405744,1033.620838L461.533946,1033.746510L461.549452,1033.507029Z M461.590341,1034.510446L461.461215,1034.533270L461.464659,1034.590273L461.590341,1034.510446Z M461.291621,1034.875364L461.287632,1034.978054L461.498261,1034.978054L461.291621,1034.875364Z M461.292462,1033.073637L461.266186,1033.130679L461.275173,1033.278901L461.292462,1033.073637Z M461.129165,1034.510446L461.044363,1034.601587L461.152018,1034.556016L461.129165,1034.510446Z M460.762285,1034.407833L460.628482,1034.521877L460.787615,1034.498975L460.762285,1034.407833Z M414.902575,1089.964353L415.000854,1090.112539L414.998522,1090.067046L414.902575,1089.964353Z M414.065691,1093.419798L414.109053,1093.682069L414.169144,1093.682069L414.065691,1093.419798Z M411.017661,1102.690627L410.968624,1102.713648L411.037185,1102.884659L411.017661,1102.690627Z M410.766960,1103.101163L410.478863,1103.363474L410.778171,1103.534641L410.766960,1103.101163Z M410.848606,1103.945216L410.780827,1103.990787L410.812567,1104.025044L410.848606,1103.945216Z M410.639092,1103.967884L410.761749,1104.218998L410.749013,1104.161955L410.639092,1103.967884Z " data-name-1="Tamil Nadu"/><path d="M256.284908,198.085599L256.169336,197.889358L256.606038,196.923056L256.449829,196.508987L255.906794,195.867970L255.885433,194.898895L255.297662,194.782420L251.650936,194.640607L251.641861,195.655053L255.969606,198.121464L256.284908,198.085599Z " data-name-1="Chandigarh"/><path d="M294.360195,123.352100L304.633435,116.348333L307.432708,124.906202L319.353005,129.302864L329.833877,120.098763L321.339882,95.640007L312.542746,95.181274L293.036672,76.482550L288.503709,59.282839L295.527402,53.269386L264.813870,31.907842L250.559247,3.520429L242.899687,0.000000L223.528387,19.234813L208.426535,31.016999L180.476834,40.711304L160.189068,34.876515L130.462716,29.161283L115.930771,45.065572L124.819664,53.518348L123.909947,60.906939L137.199971,66.590670L129.137876,72.963993L136.458835,81.077700L136.041988,95.257261L158.230426,114.029888L161.258573,110.660914L188.887986,130.248601L189.333140,130.556284L202.643712,124.863235L206.042199,120.810077L206.060164,120.773191L206.383818,120.128773L200.540003,108.721485L217.165206,96.930694L232.107488,95.437904L254.821155,110.563614L268.454376,106.851496L285.551719,117.125840L289.510601,113.099220L294.285990,123.413512L294.360195,123.352100Z " data-name-1="Jammu and Kashmir"/><path d="M195.181024,631.651650L194.982904,631.585972L189.541744,627.569979L192.937418,623.840464L186.152648,627.835900L186.023929,627.944319L186.320397,628.877273L194.252032,634.540190L195.301502,632.294345L195.181024,631.651650Z " data-name-1="Dadra and Nagar Haveli"/><path d="M683.922111,422.335510L683.863826,422.001379L679.648180,418.651768L661.672943,438.612081L662.059423,447.551105L646.895857,448.046915L643.393872,455.017620L621.272724,441.890579L613.375736,447.852603L587.388518,457.069751L583.794846,450.917428L574.045029,459.909542L555.144439,446.689540L537.507192,450.805703L537.109755,450.825447L536.722215,450.936702L533.430711,453.758691L536.466431,457.492409L534.049949,467.936804L533.557843,468.311389L533.710680,468.380399L561.395677,489.395641L577.197730,514.554665L577.397920,519.253765L566.762368,533.040500L566.688702,533.199349L566.944802,533.222758L577.864682,540.732848L593.728216,536.435733L604.651806,534.736167L605.982220,543.894505L608.781487,551.849498L639.888067,549.938920L638.646309,531.445498L664.802518,545.677839L664.875853,545.743207L664.976581,545.814916L670.431591,543.513098L651.890847,515.631895L629.978899,507.301189L629.734201,507.271669L629.978899,507.301189L631.870132,490.489462L637.399032,493.948704L658.267508,480.779453L671.176504,479.881334L680.520383,473.095633L691.395103,447.542878L683.917078,422.804373L683.922111,422.335510Z M604.651806,534.736167L604.707929,534.140152L604.707929,534.140152L604.651806,534.736167Z M596.052414,512.434397L595.762272,511.865782L595.762272,511.865782L596.052414,512.434397Z M593.146926,498.407061L592.918228,498.295784L592.918228,498.295784L593.146926,498.407061Z M617.274204,488.047283L617.603353,488.376601L617.603353,488.376601L617.274204,488.047283Z M633.841031,475.137543L633.688688,475.862294L633.688688,475.862294L633.841031,475.137543Z M622.628279,495.206305L622.961891,495.005125L622.961891,495.005125L622.628279,495.206305Z " data-name-1="Jharkhand"/><path d="M755.177154,409.085794L755.181134,409.120207L755.180160,409.125302L755.202030,409.965629L755.781472,411.315705L754.997370,411.833141L755.007883,411.954720L768.091931,422.190352L790.071891,424.074492L826.266934,424.185083L848.801191,430.046244L848.878278,430.088172L859.239127,421.149546L843.273865,400.964497L835.566756,403.404139L832.541465,392.567590L809.109279,395.591337L768.972185,389.874577L760.375347,392.329584L755.027916,409.031392L755.177154,409.085794Z " data-name-1="Meghalaya"/><path d="M284.362103,272.554869L284.285358,272.740169L279.521588,272.293620L278.673489,287.042767L292.326589,287.147010L292.457319,287.233957L292.372935,286.958637L285.282200,275.488780L284.605155,272.615097L284.362103,272.554869Z " data-name-1="Delhi"/><path d="M683.922111,422.335510L684.423184,422.427919L679.700704,394.039367L684.065848,386.954684L685.461890,368.284292L685.470891,368.498452L685.912690,372.319451L654.139391,373.282337L648.801272,366.235827L631.170303,369.019432L593.900854,355.745240L582.034219,359.116313L559.810692,346.537299L556.774652,335.330885L537.440965,327.786775L530.183095,334.968401L529.926793,334.780735L544.800240,356.000684L554.986354,364.521872L543.446555,365.870693L538.291966,371.793053L548.881730,377.044007L545.995188,386.200918L564.383781,402.995248L558.443067,400.797129L529.318261,421.152368L527.960885,429.300457L537.078389,450.746942L537.109755,450.825447L537.507192,450.805703L555.144439,446.689540L574.045029,459.909542L583.794846,450.917428L587.388518,457.069751L613.375736,447.852603L621.272724,441.890579L643.393872,455.017620L646.895857,448.046915L662.059423,447.551105L661.672943,438.612081L679.648180,418.651768L683.863826,422.001379L683.922111,422.335510Z M632.247947,388.625937L632.535506,388.194812L632.535506,388.194812L632.247947,388.625937Z M613.478199,404.769090L613.394759,404.317713L613.394759,404.317713L613.478199,404.769090Z M647.990620,411.906276L648.207901,411.592178L648.207901,411.592178L647.990620,411.906276Z M645.606444,426.430331L646.223271,426.593900L646.223271,426.593900L645.606444,426.430331Z M591.629496,422.796536L591.787685,422.383949L591.787685,422.383949L591.629496,422.796536Z M591.662568,392.468455L592.208091,392.429537L592.208091,392.429537L591.662568,392.468455Z M596.720378,393.070569L597.757541,393.664172L597.757541,393.664172L596.720378,393.070569Z M575.180839,382.128241L575.694131,382.839278L575.694131,382.839278L575.180839,382.128241Z M641.556423,395.724137L641.876907,395.938701L641.876907,395.938701L641.556423,395.724137Z M646.813664,397.458600L647.005196,397.613976L647.005196,397.613976L646.813664,397.458600Z M575.133555,419.303594L574.835898,419.185237L574.835898,419.185237L575.133555,419.303594Z M615.771873,421.425288L616.059333,421.581421L616.059333,421.581421L615.771873,421.425288Z M666.565409,414.338765L666.181712,414.631378L666.181712,414.631378L666.565409,414.338765Z M628.547619,392.824097L629.002167,393.061554L629.002167,393.061554L628.547619,392.824097Z M685.323910,368.135822L685.264845,368.263518L685.294046,368.297461L685.326341,368.335010L685.461273,368.268222L685.421520,368.275042L685.411803,368.143896L685.407339,368.128767L685.323910,368.135822Z M645.225551,314.254184L645.354075,314.306034L645.381093,314.278778L645.225551,314.254184Z " data-name-1="Bihar"/><path d="M823.056657,353.827118L786.694571,358.280667L769.596015,357.377383L745.737142,361.174535L745.678021,361.373399L745.083095,377.711919L744.311859,380.938294L745.034586,383.473960L745.079677,383.528522L752.768456,392.703605L755.106058,406.217359L754.992270,408.727321L755.027916,409.031392L760.375347,392.329584L768.972185,389.874577L809.109279,395.591337L836.643149,387.143772L832.541465,392.567590L835.566756,403.404139L843.273865,400.964497L859.239127,421.149546L848.878278,430.088172L848.892225,430.095539L847.240124,436.368475L845.691154,451.551737L845.722259,451.768917L847.865148,457.598797L849.599880,462.153322L849.765559,462.134443L850.002529,462.094961L858.086661,465.236092L863.076233,457.112448L873.527262,455.979999L873.602057,455.910195L873.752501,455.554513L874.923505,441.845366L877.404164,438.686055L883.587859,419.107090L883.808720,418.686727L883.561802,418.500569L889.295522,391.695372L896.991345,393.329193L902.368799,367.136985L929.258583,348.952376L930.378503,347.435763L930.468774,347.374945L956.242061,334.243833L951.650429,332.518054L946.312396,314.936070L927.207414,313.415902L898.653328,324.696165L874.571366,351.146350L850.165157,349.354204L823.212386,353.563764L823.056657,353.827118Z M862.479225,367.405079L862.256756,367.697154L862.256756,367.697154L862.479225,367.405079Z M867.248615,390.388768L867.473342,390.567978L867.473342,390.567978L867.248615,390.388768Z M869.672068,394.659623L870.707743,395.794848L870.707743,395.794848L869.672068,394.659623Z M933.013773,317.183177L933.000672,316.582793L933.000672,316.582793L933.013773,317.183177Z M869.242665,403.780654L869.562032,404.100804L869.562032,404.100804L869.242665,403.780654Z M856.122447,377.321441L855.749893,377.656102L855.749893,377.656102L856.122447,377.321441Z M879.126782,366.949949L879.134460,366.518418L879.134460,366.518418L879.126782,366.949949Z M841.198373,385.140081L840.900746,385.293421L840.900746,385.293421L841.198373,385.140081Z M754.893368,409.220937L755.065429,410.428433L754.918537,410.830720L754.984690,411.688752L754.997370,411.833141L755.781472,411.315705L755.202030,409.965629L754.893368,409.220937Z " data-name-1="Assam"/><path d="M220.755488,510.957731L220.918372,511.553833L221.669760,528.167452L215.992479,545.154113L219.820190,556.360117L219.879719,556.463136L219.915558,556.463919L228.166702,553.749415L237.126975,568.391857L257.193726,577.179764L286.921717,579.358541L306.126007,589.903708L323.644816,566.869094L341.310780,566.369281L340.279678,576.867045L355.322756,580.117753L367.916029,571.228911L392.091458,575.615305L401.334905,566.865493L422.174198,571.757134L440.982002,572.078467L453.982727,582.026152L454.154007,582.043295L454.255734,581.893081L462.442152,545.170945L470.098570,534.078539L482.496022,529.641445L485.262934,526.293606L484.921123,525.944733L485.262934,526.293606L497.634943,507.712514L497.912409,500.302664L481.344499,490.847514L473.762882,477.030122L502.264259,480.629466L515.832299,474.025852L516.149758,473.989821L515.864997,473.808180L509.555068,451.390653L494.107747,446.678492L489.259499,438.605186L455.195176,424.493262L439.313540,433.677792L438.976599,423.777048L427.453930,427.083665L418.484715,414.639608L406.622138,420.717670L404.833458,427.173639L375.255063,425.511924L362.760767,412.356767L365.302461,435.723849L378.091710,457.677531L361.881679,456.432354L359.601317,460.247970L349.299146,440.311333L351.648746,431.413885L348.193670,415.994178L364.564340,405.729691L364.681461,366.365560L349.780105,359.224953L335.680668,355.871120L335.438507,355.936098L335.218978,356.091058L332.205699,362.076989L294.227421,386.269984L284.763671,409.850554L305.972042,428.693148L300.436639,429.994518L300.894871,441.650646L308.761585,445.606459L302.866564,467.530649L285.054869,462.159041L274.844059,474.812724L265.681098,479.982291L258.051139,476.557980L267.052993,471.971306L264.992677,453.385686L269.510672,450.816359L263.345507,441.029105L243.591330,442.346621L243.789766,429.558928L228.719752,435.540240L227.278602,451.509742L237.893143,468.140076L235.345293,491.605826L221.318589,510.782023L220.755488,510.957731Z M473.905831,520.860003L473.378285,520.197074L473.378285,520.197074L473.905831,520.860003Z M442.977351,482.175056L443.418319,482.780316L443.418319,482.780316L442.977351,482.175056Z M324.459181,530.652024L324.159632,530.537485L324.159632,530.537485L324.459181,530.652024Z M331.818598,541.550862L331.605951,541.263552L331.605951,541.263552L331.818598,541.550862Z M330.395392,540.322704L330.244241,540.067098L330.244241,540.067098L330.395392,540.322704Z M328.434412,536.104574L328.753508,535.871822L328.753508,535.871822L328.434412,536.104574Z M336.567736,550.018691L336.582298,550.398286L336.582298,550.398286L336.567736,550.018691Z M338.317234,552.160672L338.359063,552.251323L338.359063,552.251323L338.317234,552.160672Z M478.556192,504.333393L478.591246,504.129800L478.591246,504.129800L478.556192,504.333393Z " data-name-1="Madhya Pradesh"/><path d="M246.473092,1040.782257L246.395471,1040.827906L246.557562,1041.226964L246.473092,1040.782257Z M246.248481,1042.903139L245.742188,1044.283104L246.003376,1044.841856L246.248481,1042.903139Z M245.672581,1044.294419L245.585020,1044.340146L245.569264,1044.419973L245.672581,1044.294419Z M245.501745,1044.100547L245.397536,1044.214709L245.469002,1044.237534L245.501745,1044.100547Z M229.252940,1115.838939L227.577143,1118.347378L228.219743,1118.336494L229.252940,1115.838939Z M226.779166,1117.777536L226.815812,1117.925918L226.831378,1117.823108L226.779166,1117.777536Z M219.452195,986.092214L219.471657,986.240514L219.508679,986.194865L219.452195,986.092214Z M212.430566,995.465704L211.688964,998.259291L211.818651,997.757232L212.430566,995.465704Z M208.739149,1023.483517L208.589280,1023.665799L209.025546,1024.121936L208.739149,1023.483517Z M208.543708,977.140594L208.268648,978.166913L208.645344,977.790603L208.543708,977.140594Z M197.230432,1045.149772L196.932068,1045.571107L197.015278,1045.628736L197.230432,1045.149772Z M196.713178,1007.838197L196.651052,1007.975065L196.711310,1007.974987L196.713178,1007.838197Z M195.210609,1008.351375L195.040948,1008.362806L194.985328,1008.784687L195.210609,1008.351375Z M191.233712,1013.528452L192.307793,1011.316203L192.228606,1011.156510L191.233712,1013.528452Z M191.233712,1013.528452L191.179652,1013.631142L191.210200,1013.631142L191.233712,1013.528452Z M191.105216,1013.733676L190.981640,1013.847877L191.129262,1013.802149L191.105216,1013.733676Z M187.868046,997.392863L187.809546,997.586655L187.829641,997.586851L187.868046,997.392863Z M187.762142,997.301565L187.694589,997.335625L187.805048,997.347136L187.762142,997.301565Z " data-name-1="Lakshadweep"/><path d="M873.602057,455.910195L874.533284,456.435958L875.015774,467.757344L877.614690,468.748325L887.895774,470.279776L887.837366,470.144264L912.421072,475.215948L920.479153,462.622329L930.652174,430.358161L925.291459,412.632846L925.271976,412.503821L892.563815,409.368464L883.919707,419.081224L883.808720,418.686727L883.587859,419.107090L877.404164,438.686055L874.923505,441.845366L873.752501,455.554513L873.602057,455.910195Z " data-name-1="Manipur"/><path d="M220.755488,510.957731L221.318589,510.782023L235.345293,491.605826L237.893143,468.140076L227.278602,451.509742L228.719752,435.540240L243.789766,429.558928L243.591330,442.346621L263.345507,441.029105L269.510672,450.816359L264.992677,453.385686L267.052993,471.971306L258.051139,476.557980L265.681098,479.982291L274.844059,474.812724L285.054869,462.159041L302.866564,467.530649L308.761585,445.606459L300.894871,441.650646L300.436639,429.994518L305.972042,428.693148L284.763671,409.850554L294.227421,386.269984L332.205699,362.076989L335.218978,356.091058L335.438507,355.936098L335.486958,355.838670L318.690759,351.759024L304.108176,332.800757L295.794453,316.221784L295.642253,316.067872L295.311387,315.845660L286.881416,316.411961L277.586299,298.819273L269.510499,308.798664L255.320032,307.432302L248.065447,296.590988L229.329549,282.900523L218.674520,256.356716L190.237315,253.636878L182.490112,228.995104L182.599419,228.450331L180.761862,228.395925L166.726507,227.405949L159.858031,225.672486L161.284623,218.152734L161.070931,218.533225L143.173841,232.154773L117.365520,276.774166L113.333243,293.428846L99.668752,312.946447L85.056790,314.615020L73.192230,320.417331L52.149312,307.785791L44.740027,317.697251L28.781471,348.507444L30.866265,360.048849L43.522233,366.340476L51.630725,365.820603L59.452289,397.717534L77.812554,403.439102L92.021418,434.912455L98.367691,444.405672L98.620066,444.516075L141.970146,447.461940L158.344694,457.789325L173.266114,458.070728L171.415415,465.274320L180.369455,467.745437L185.153147,481.534470L203.511011,498.418964L220.573666,510.770513L220.755488,510.957731Z " data-name-1="Rajasthan"/><path d="M703.311658,342.961584L701.282225,315.722845L698.353146,307.345301L677.192564,309.514285L677.012300,339.966819L676.901194,340.207477L682.521325,344.610468L703.265238,343.110719L703.311658,342.961584Z " data-name-1="Sikkim"/><path d="M695.197140,570.629298L702.522473,568.531741L715.644989,547.680042L724.734948,560.456956L732.570229,559.115068L739.328549,539.671750L740.811816,521.859988L722.575101,488.867640L726.303126,472.136737L701.634992,451.799786L696.997319,440.869252L708.113612,424.908269L726.499628,420.061308L708.992031,410.325196L689.616221,393.192316L691.201738,384.082145L699.343149,371.489757L714.849818,380.581130L721.151516,378.409778L734.841541,389.945681L745.029241,383.466904L745.034586,383.473960L744.311859,380.938294L745.083095,377.711919L745.678021,361.373399L745.618188,361.411729L730.123791,355.943466L719.438943,357.106024L703.267589,343.223648L703.265238,343.110719L682.521325,344.610468L676.901194,340.207477L676.855896,340.303238L685.052086,354.533476L686.788391,360.740360L685.444300,368.125631L685.407339,368.128767L685.411803,368.143896L685.421520,368.275042L685.461273,368.268222L685.461890,368.284292L684.065848,386.954684L679.700704,394.039367L692.107878,411.904552L692.321992,412.374326L692.107878,411.904552L684.423184,422.427919L683.922111,422.335510L683.917078,422.804373L691.395103,447.542878L680.520383,473.095633L671.176504,479.881334L658.267508,480.779453L637.399032,493.948704L631.870132,490.489462L629.978899,507.301189L651.890847,515.631895L670.431591,543.513098L664.976581,545.814916L664.875853,545.743207L664.803984,545.950818L673.931834,551.155989L676.664405,558.865274L684.516510,556.507052L695.191664,570.636969L695.197140,570.629298Z M660.351260,503.569684L660.256957,503.775470L660.256957,503.775470L660.351260,503.569684Z M660.122353,515.076447L659.977120,515.634635L659.977120,515.634635L660.122353,515.076447Z M695.677648,421.429363L695.649382,421.309364L695.649382,421.309364L695.677648,421.429363Z M693.648847,414.805237L693.792260,414.488011L693.792260,414.488011L693.648847,414.805237Z M709.815415,545.650753L709.877009,545.810375L710.044017,545.878796L709.815415,545.650753Z M706.961427,538.296870L706.836771,537.897838L706.750075,537.840845L706.961427,538.296870Z M706.361244,537.141030L706.218965,536.997998L706.123914,536.937403L706.361244,537.141030Z M705.831546,536.837664L705.880398,536.974355L706.070487,536.928791L705.831546,536.837664Z M721.390556,459.515257L721.360620,459.520271L721.355931,459.553487L721.390556,459.515257Z M748.414369,564.223405L750.441303,565.906337L750.470271,565.710404L748.414369,564.223405Z M747.709769,569.289559L747.324989,569.853948L748.433884,570.458338L747.709769,569.289559Z M744.048099,546.812652L745.419736,557.505844L747.984627,558.489290L744.048099,546.812652Z M741.566956,557.947507L744.842239,561.657386L745.995585,560.289436L741.566956,557.947507Z M744.190608,565.031799L746.052146,569.637038L746.461571,566.992697L744.190608,565.031799Z M743.247163,570.697792L745.988247,572.715574L745.658756,572.179759L743.247163,570.697792Z M744.901197,561.725725L744.240399,563.162322L744.434723,563.287413L744.901197,561.725725Z M742.558301,560.106807L742.279625,563.538378L745.363936,565.750013L742.558301,560.106807Z M745.043354,568.856364L745.094402,568.976365L745.107961,568.930729L745.043354,568.856364Z M743.218514,545.342937L742.754832,546.046247L743.147179,547.194915L743.218514,545.342937Z M740.816045,531.375037L741.559586,536.940222L744.038014,535.378135L740.816045,531.375037Z M742.248937,564.176907L742.218757,569.515080L742.800443,569.886434L742.248937,564.176907Z M743.019828,551.121544L741.789161,551.023691L741.957480,551.936235L743.019828,551.121544Z M741.908158,562.620624L740.824154,564.753123L742.151075,564.188336L741.908158,562.620624Z M740.761149,568.816442L740.353090,571.837917L741.728467,571.792125L740.761149,568.816442Z M740.965698,558.636224L741.850989,559.696460L741.893757,559.217694L740.965698,558.636224Z M740.115290,532.050055L739.238284,536.603661L741.163388,537.689515L740.115290,532.050055Z M739.740039,549.528166L739.532264,551.099156L741.692474,550.947443L739.740039,549.528166Z M740.106510,559.559703L739.605150,561.657386L740.701534,562.387114L740.106510,559.559703Z M739.718357,538.205821L741.378318,540.759387L741.256497,539.892988L739.718357,538.205821Z M741.320981,531.427335L741.294194,531.661266L741.363179,531.661266L741.320981,531.427335Z M740.314707,546.812652L735.902633,551.378313L737.171784,552.252732L740.314707,546.812652Z M741.050238,529.065535L740.998220,529.068745L741.080722,529.165435L741.050238,529.065535Z M737.478010,557.370809L740.282938,559.696381L740.189937,557.872435L737.478010,557.370809Z M740.798794,565.043228L739.703126,564.178942L739.898621,564.501063L740.798794,565.043228Z M739.880291,552.084111L739.016700,552.529226L738.878326,553.008472L739.880291,552.084111Z M739.442926,551.077784L738.749705,552.480300L738.960132,551.710389L739.442926,551.077784Z M737.916850,562.483086L738.393222,567.293132L739.453971,568.145826L737.916850,562.483086Z M739.319951,569.472340L738.959032,571.598386L739.932674,572.156745L739.319951,569.472340Z M737.980890,555.409229L737.863863,557.667260L740.281288,557.462007L737.980890,555.409229Z M738.633759,542.946310L739.311858,547.141916L738.551715,545.383488L738.633759,542.946310Z M737.769288,566.361532L737.882943,567.893298L739.143022,569.432652L737.769288,566.361532Z M737.420421,558.385411L737.585224,562.318541L739.478409,563.538378L737.420421,558.385411Z M739.206748,562.974763L738.775267,563.763198L739.115565,563.890168L739.206748,562.974763Z M739.211043,535.309789L739.126278,535.686278L739.183535,535.742959L739.211043,535.309789Z M736.271924,534.032505L737.819595,536.116865L736.826125,534.275984L736.271924,534.032505Z M738.362799,554.634786L737.861203,554.910887L737.857908,555.246090L738.362799,554.634786Z M736.483684,550.508901L735.486760,551.067686L735.590169,551.386141L736.483684,550.508901Z M735.448101,551.294863L735.452751,551.250242L735.418781,551.216110L735.448101,551.294863Z M737.114143,552.720627L737.128720,552.810339L737.173584,552.788185L737.114143,552.720627Z M736.648671,549.914339L736.815411,549.422562L736.793507,549.288227L736.648671,549.914339Z M734.725339,553.789104L734.326555,556.595275L736.731289,554.768883L734.725339,553.789104Z M735.857571,568.668573L735.946593,567.769461L735.680671,568.166883L735.857571,568.668573Z M734.232149,563.184945L733.666711,563.378844L734.844030,563.983243L734.232149,563.184945Z M733.325599,563.697913L734.031799,566.122232L734.801592,565.768800L733.325599,563.697913Z M734.138639,567.129529L733.894189,567.782298L734.156265,568.565793L734.138639,567.129529Z M733.275095,560.733913L732.941622,561.258000L733.540659,562.888577L733.275095,560.733913Z M733.689077,552.491886L733.419036,552.035028L733.440004,552.400138L733.689077,552.491886Z M732.851507,560.095770L732.900664,559.770670L732.759921,559.771453L732.851507,560.095770Z M731.318047,571.004252L730.949655,571.771850L732.690594,573.399568L731.318047,571.004252Z M731.947354,558.786053L732.357530,561.479220L732.465650,559.482205L731.947354,558.786053Z M732.225589,561.566190L732.117479,561.728387L732.151053,561.791637L732.225589,561.566190Z M731.330113,560.586902L731.352862,560.531479L731.275718,560.581344L731.330113,560.586902Z M730.683565,560.543613L730.652272,561.098778L730.971354,561.338238L730.683565,560.543613Z M729.550056,561.362270L728.821993,562.749082L730.195726,562.227423L729.550056,561.362270Z M729.815621,558.157300L729.314455,559.035613L729.700676,558.829969L729.815621,558.157300Z M729.156224,566.506740L728.045610,567.605466L729.778003,568.360702L729.156224,566.506740Z M728.875424,563.251796L727.740426,564.174715L728.570844,566.557543L728.875424,563.251796Z M727.553173,565.607153L726.676111,567.676778L727.056266,569.506861L727.553173,565.607153Z M727.442917,562.330831L727.533231,565.512357L728.040492,566.032680L727.442917,562.330831Z M725.702089,564.256674L726.135925,567.186516L726.861263,566.787527L725.702089,564.256674Z M727.050669,558.513949L726.899363,558.465258L726.882859,558.522716L727.050669,558.513949Z M726.393566,564.245401L725.706500,565.200883L725.737996,565.532083L726.393566,564.245401Z M724.096181,566.629481L724.575583,570.595247L725.536413,570.099822L724.096181,566.629481Z M723.689601,565.882070L722.932601,563.670202L723.059590,566.035107L723.689601,565.882070Z M722.306967,563.163966L722.778722,563.823474L722.747047,563.308157L722.306967,563.163966Z M722.764402,564.221996L722.756172,564.165478L722.677770,564.096983L722.764402,564.221996Z M720.228761,566.020782L720.372129,569.652224L721.224526,570.914545L720.228761,566.020782Z M719.823832,564.074360L719.634514,564.347870L719.738132,564.530261L719.823832,564.074360Z M718.843839,561.725960L718.702139,561.771519L718.827542,561.896689L718.843839,561.725960Z M718.555379,562.432595L718.395392,562.706184L718.429511,562.956993L718.555379,562.432595Z M717.558853,557.154204L717.641091,557.826797L717.783178,557.279455L717.558853,557.154204Z M716.871048,558.881321L716.898918,558.768049L716.844400,558.815096L716.871048,558.881321Z " data-name-1="West Bengal"/><path d="M403.903388,934.186213L403.886285,934.308089L410.292255,939.880975L418.556945,923.293272L468.815695,902.946320L476.994976,906.462297L476.982076,906.462297L467.632213,900.520465L472.248198,888.478595L469.044971,882.206520L461.939232,830.614539L473.517310,808.068115L493.152116,810.303390L498.999370,791.212209L504.441431,786.719028L523.873303,784.631875L535.300194,778.005901L533.761134,772.531702L533.751146,772.532798L530.818672,771.457631L535.140699,771.538445L535.153116,771.539541L533.698454,758.264865L546.681303,745.697072L564.257838,734.897676L577.679323,715.294821L592.462106,706.263092L611.689704,674.791394L611.689599,674.777379L610.499215,674.038755L610.486423,674.038755L610.302481,673.993032L610.227552,674.027481L610.070247,673.799333L610.066926,673.770364L577.094972,681.712573L573.418639,675.901369L561.839385,677.319203L552.260071,692.166901L554.603681,696.544162L531.385461,698.839649L528.399286,710.723420L530.579574,713.620024L510.400033,723.001121L510.274970,723.133688L510.496139,723.460447L500.196441,744.972429L481.617334,755.236191L481.199291,758.754597L458.662193,759.270719L454.845238,767.462606L427.051192,778.432211L427.004268,788.540246L417.042261,792.252146L411.129213,800.003593L405.894590,796.805316L388.522419,807.931036L367.744464,804.309974L366.926048,804.115338L366.468871,803.892002L354.197372,803.145566L352.450859,827.460620L356.346023,831.594519L344.639907,838.195862L347.556149,847.613287L345.184376,858.496536L350.578741,869.034780L368.331912,870.857671L373.633147,875.914250L368.418046,882.300954L351.615579,876.329653L360.932224,889.421289L373.167645,896.286241L382.058620,894.020074L385.984685,885.967012L393.709785,889.017361L395.996533,897.946849L406.830078,903.922987L415.156044,917.605394L404.057034,934.090098L403.903388,934.186213Z M475.504758,905.162242L475.538127,905.322057L475.608095,905.321861L475.504758,905.162242Z M473.687799,903.748020L473.619405,903.885089L473.689386,903.885089L473.687799,903.748020Z M472.347458,902.653390L472.176086,902.756592L472.350631,902.926979L472.347458,902.653390Z M472.016827,902.048854L471.876298,902.162981L471.986341,902.162981L472.016827,902.048854Z M468.792565,897.225171L468.626142,897.738289L468.718556,897.886712L468.792565,897.225171Z M468.566481,896.210287L468.636583,896.563942L468.678306,896.586767L468.566481,896.210287Z M468.492224,897.692717L468.311102,897.909538L468.410005,897.898027L468.492224,897.692717Z M467.104858,899.836530L467.154534,899.950656L467.221638,899.916594L467.104858,899.836530Z M465.525553,821.331383L465.496120,821.434005L465.565918,821.434005L465.525553,821.331383Z M461.335152,833.716650L461.396110,833.830862L461.423716,833.807839L461.335152,833.716650Z M565.198004,730.712619L565.201396,730.655535L565.142997,730.666968L565.198004,730.712619Z M562.372382,736.448659L562.323829,736.540041L562.326486,736.562827L562.372382,736.448659Z M535.144257,771.550817L535.140699,771.538445L535.138896,771.546824L535.137435,771.550896L535.144257,771.550817Z M534.710934,772.223795L534.001167,772.515648L533.791046,772.532876L533.792182,772.543135L536.049385,776.135591L537.280142,771.881746L534.791263,772.223795L534.710934,772.223795Z M536.404794,777.196039L536.337899,777.218905L536.389117,777.321723L536.404794,777.196039Z M535.637114,771.060532L535.463502,771.288408L535.468594,771.334296L535.637114,771.060532Z M484.677850,806.756527L484.723806,807.201554L484.786963,807.235618L484.677850,806.756527Z M509.609259,786.273923L509.288032,786.433750L508.669509,786.513625L509.609259,786.273923Z M509.367895,786.251292L509.254570,786.308300L509.294198,786.399608L509.367895,786.251292Z M493.738647,810.485888L493.622119,810.805190L493.804441,810.542935L493.738647,810.485888Z " data-name-1="Andhra Pradesh"/><path d="M252.590370,189.070361L253.430546,188.324473L265.700093,196.248198L268.009710,203.710512L284.844974,210.388911L285.180085,210.404041L285.176980,210.184415L285.036407,210.053545L284.810495,209.821755L284.593321,209.587471L284.515976,209.359585L291.943354,203.882684L285.640705,187.308393L293.511455,178.911920L323.497040,174.651034L323.267463,174.565592L311.524944,153.620583L311.739749,144.369147L304.500547,139.312137L294.438922,123.443827L294.285990,123.413512L289.510601,113.099220L285.551719,117.125840L268.454376,106.851496L254.821155,110.563614L232.107488,95.437904L217.165206,96.930694L200.540003,108.721485L206.383818,120.128773L206.060164,120.773191L206.211526,120.991532L209.649832,126.976135L201.521220,140.286014L212.737925,146.414965L228.279406,172.707512L242.306092,173.794346L246.169124,185.071540L251.932115,188.603323L252.590370,189.070361Z " data-name-1="Himachal Pradesh"/><path d="M883.808720,418.686727L883.919707,419.081224L892.563815,409.368464L925.271976,412.503821L925.446655,412.266700L935.634238,398.555168L934.835879,362.224511L934.918805,362.092196L932.188016,354.219173L931.693314,350.418075L930.478925,347.865092L930.378503,347.435763L929.258583,348.952376L902.368799,367.136985L896.991345,393.329193L889.295522,391.695372L883.561802,418.500569L883.808720,418.686727Z " data-name-1="Nagaland"/><path d="M101.871194,605.325111L103.477732,596.070741L109.564803,604.043478L108.341255,605.735518L108.347226,605.735518L109.418286,606.613242L109.208653,607.525252L109.218565,607.526582L109.564436,607.363217L109.748038,607.559302L109.749535,607.570887L109.796491,607.570887L109.828486,607.593666L109.877901,607.593823L110.078946,606.949521L111.420315,606.432499L112.295845,606.724161L112.293771,606.704591L134.752249,596.911981L151.202849,587.404486L153.587905,556.042607L156.964476,544.151437L164.517865,545.656546L161.549606,554.594706L173.515770,568.411975L167.647615,584.303937L180.946650,617.306407L180.949186,617.329812L180.343841,619.325612L181.550978,619.998735L180.018701,621.428977L180.023837,621.478998L178.922381,622.356826L178.032386,624.739511L178.066859,631.021168L178.070493,631.054907L180.518434,631.446003L181.591708,628.541055L185.988121,628.002560L186.023929,627.944319L186.152648,627.835900L192.937418,623.840464L189.541744,627.569979L194.982904,631.585972L195.181024,631.651650L195.370578,631.700968L202.666442,616.094496L199.419719,610.014400L213.346509,611.941287L217.872836,604.249895L209.960348,593.977308L211.891860,575.269630L208.583360,561.828194L219.604020,556.491395L219.879719,556.463136L219.820190,556.360117L215.992479,545.154113L221.669760,528.167452L220.918372,511.553833L220.755488,510.957731L220.573666,510.770513L203.511011,498.418964L185.153147,481.534470L180.369455,467.745437L171.415415,465.274320L173.266114,458.070728L158.344694,457.789325L141.970146,447.461940L98.620066,444.516075L98.383515,444.790788L82.456583,462.446619L82.159593,455.744576L56.359228,465.591419L21.446162,464.024478L14.503085,496.430924L34.392838,516.421999L58.427913,524.152914L73.567002,515.646615L82.009137,515.110663L42.912540,543.535801L41.747338,537.299876L33.536101,542.407156L58.334056,568.594443L65.890505,571.170907L78.183057,589.513420L101.861153,605.325111L101.871194,605.325111Z M135.618831,596.524198L135.458550,596.592768L135.465919,596.661261L135.618831,596.524198Z M131.177982,599.134964L130.910776,599.590927L131.270154,599.534019L131.177982,599.134964Z M126.841198,601.072865L126.786626,601.209615L126.813776,601.186914L126.841198,601.072865Z M159.297783,546.032704L159.206756,546.101046L159.298515,546.215107L159.297783,546.032704Z M156.128575,545.724888L156.175321,545.793152L156.357081,545.827519L156.128575,545.724888Z M170.680193,568.286650L170.284267,568.628651L171.596626,569.073431L170.680193,568.286650Z M170.022004,577.281133L169.714516,577.623285L169.950842,577.532170L170.022004,577.281133Z M167.140632,569.369638L167.063049,569.381067L167.076675,569.415822L167.140632,569.369638Z M167.056832,569.415274L166.984322,569.472261L166.982175,569.540599L167.056832,569.415274Z M166.294994,569.392339L166.058656,569.757196L166.626310,570.156104L166.294994,569.392339Z M166.825116,569.814261L166.719297,570.190547L166.805359,570.167611L166.825116,569.814261Z M166.522696,569.312729L166.379939,569.449482L166.441819,569.472261L166.522696,569.312729Z M165.945846,569.802754L165.864321,569.871326L165.836317,569.882677L165.945846,569.802754Z M157.797967,570.441351L157.598098,570.863116L158.253579,571.706645L157.797967,570.441351Z M156.347423,556.908871L156.152674,557.456292L156.630641,557.672896L156.347423,556.908871Z M154.375845,564.855200L154.555395,565.938353L154.781487,566.200276L154.375845,564.855200Z M151.061488,554.355163L150.941105,554.423738L151.060951,554.526287L151.061488,554.355163Z M150.436403,584.360453L150.414546,584.520373L150.338267,584.725772L150.436403,584.360453Z M137.706429,595.635209L137.747049,595.737752L137.805934,595.737908L137.706429,595.635209Z M137.469328,595.635209L137.273040,595.646403L137.295102,595.760530L137.469328,595.635209Z M78.104186,526.182587L77.948354,526.284994L78.076629,526.376518L78.104186,526.182587Z M77.874053,525.019544L77.952264,525.361373L77.995048,525.304532L77.874053,525.019544Z M76.530515,529.956723L76.473091,529.968076L76.501811,530.047854L76.530515,529.956723Z M76.299988,530.617968L76.250985,530.709098L76.362040,530.732037L76.299988,530.617968Z M71.329853,531.267701L71.316988,531.416061L71.375963,531.416061L71.329853,531.267701Z M70.130378,530.230037L68.575325,530.948276L68.434696,531.712546L70.130378,530.230037Z M70.802213,531.655551L70.438481,531.837967L70.856753,531.792324L70.802213,531.655551Z M70.855944,531.872102L70.418109,532.008874L70.472453,532.054517L70.855944,531.872102Z M70.390514,531.849319L69.913171,531.986014L70.230900,532.008874L70.390514,531.849319Z M68.633857,532.259794L68.497789,532.453561L68.608795,532.476109L68.633857,532.259794Z M68.134467,532.727341L68.135919,532.829979L68.214918,532.829979L68.134467,532.727341Z M67.112867,531.872102L66.525545,533.491212L67.707803,533.228864L67.112867,531.872102Z M57.217073,535.714541L57.773179,537.892123L57.930230,537.618742L57.217073,535.714541Z M52.369764,538.211536L52.317995,538.633349L52.603207,538.542301L52.369764,538.211536Z M51.469111,539.876078L51.542449,540.183902L51.693712,540.127066L51.469111,539.876078Z M48.994229,532.715832L48.896223,532.898326L49.068485,532.944047L48.994229,532.715832Z M46.150015,532.921108L46.626819,533.753560L47.579100,533.457000L46.150015,532.921108Z M47.172188,538.610411L46.802967,538.838540L47.162061,539.237570L47.172188,538.610411Z M45.605829,535.121583L46.570878,535.748753L46.423880,535.304074L45.605829,535.121583Z M45.081016,537.424589L45.001319,537.504521L45.053065,537.527224L45.081016,537.424589Z M45.041770,537.333462L44.914772,537.344970L44.951792,537.413394L45.041770,537.333462Z M42.415405,538.724475L42.365421,538.804172L42.386446,538.815758L42.415405,538.724475Z M42.271436,539.203358L42.238410,539.442838L42.318400,539.362751L42.271436,539.203358Z M41.898627,539.488401L41.924549,539.636129L41.964061,539.636129L41.898627,539.488401Z M39.727869,534.973460L38.331960,536.524120L38.116542,537.253765L39.727869,534.973460Z M108.352445,605.792504L108.108715,606.849013L108.197874,606.991400L109.061079,607.161731L109.058511,607.137465L108.762368,606.670384L108.668899,606.533477L108.452048,605.792504L108.352445,605.792504Z M84.694914,510.845760L83.912723,511.484381L83.695870,512.499229L84.694914,510.845760Z M84.262052,511.016848L84.066131,511.107990L83.974638,511.165071L84.262052,511.016848Z M84.061796,513.707783L83.745103,513.947535L83.654613,514.358057L84.061796,513.707783Z M83.694345,511.381807L83.632038,511.438888L83.664129,511.461595L83.694345,511.381807Z M83.323757,511.495813L82.575552,512.088311L82.997554,512.077349L83.323757,511.495813Z M56.349506,523.183713L56.257703,523.331454L57.103245,523.582856L56.349506,523.183713Z M56.063528,522.568006L56.025326,522.579359L56.023312,522.647867L56.063528,522.568006Z M20.584016,500.730457L20.408848,500.832961L20.735409,500.936091L20.584016,500.730457Z M19.122421,502.395647L19.096037,502.509739L19.197256,502.532526L19.122421,502.395647Z M18.360540,500.639307L18.024694,500.798897L18.195024,500.913147L18.360540,500.639307Z M18.241275,500.456930L18.324561,500.582378L18.277264,500.513937L18.241275,500.456930Z M18.062173,478.581252L18.081378,478.660907L18.179876,478.660907L18.062173,478.581252Z M17.981062,501.620101L17.955536,501.654321L17.968605,501.768414L17.981062,501.620101Z M17.789036,499.088423L17.816576,499.327889L17.794704,499.396096L17.789036,499.088423Z M17.943181,500.342836L17.944970,500.445497L17.974415,500.445497L17.943181,500.342836Z M17.773052,500.319814L17.781856,500.650740L17.909372,500.650818L17.773052,500.319814Z M17.558817,504.037714L17.747220,504.391339L17.649983,504.140528L17.558817,504.037714Z M16.418980,500.433986L17.578795,501.198028L17.167208,500.525292L16.418980,500.433986Z M15.371914,500.650740L15.221024,502.772063L17.512597,502.167384L15.371914,500.650740Z M16.177880,498.164382L15.932189,499.020060L17.321317,499.042613L16.177880,498.164382Z M16.893365,502.771985L16.914833,502.874722L16.939118,502.829540L16.893365,502.771985Z M16.555593,498.712073L16.489326,498.734782L16.493280,498.769160L16.555593,498.712073Z M15.781242,497.708310L15.908956,497.879103L15.950266,497.982157L15.781242,497.708310Z M15.692747,498.734782L15.676899,498.939950L15.729470,499.054202L15.692747,498.734782Z M15.422015,499.373465L15.336486,499.487246L15.347803,499.498757L15.422015,499.373465Z M15.190588,499.498757L15.143218,499.601419L15.144069,499.521780L15.190588,499.498757Z M14.797799,496.944167L14.751557,496.967112L14.903245,497.001333L14.797799,496.944167Z M14.659880,480.292134L14.300263,480.657427L14.368290,480.816969L14.659880,480.292134Z M14.670293,499.510269L14.660768,499.681450L14.700746,499.601419L14.670293,499.510269Z M13.388130,499.476126L13.826254,500.467658L14.568001,500.502505L13.388130,499.476126Z M14.256770,497.708310L14.509394,497.936581L14.269903,497.822407L14.256770,497.708310Z M14.451276,498.027733L14.375538,498.141829L14.414974,498.141829L14.451276,498.027733Z M14.340304,480.166662L14.273959,480.269421L14.313091,480.269421L14.340304,480.166662Z M13.714009,496.921614L13.751284,497.503140L13.883762,497.628592L13.714009,496.921614Z M11.526516,474.691474L10.345025,477.965236L11.285421,478.353096L11.526516,474.691474Z M13.343744,495.758083L13.246764,495.769594L13.354796,495.769594L13.343744,495.758083Z M13.085881,497.788264L13.099785,497.993669L13.163910,498.039245L13.085881,497.788264Z M13.139790,497.742688L13.166577,497.891006L13.163436,497.776831L13.139790,497.742688Z M12.816744,495.792539L12.771530,495.826682L12.776789,495.872259L12.816744,495.792539Z M12.696310,493.305762L12.716650,493.397388L12.795234,493.397388L12.696310,493.305762Z M12.741710,495.313435L12.679426,495.370445L12.744108,495.507254L12.741710,495.313435Z M12.757282,495.621352L12.627731,495.689952L12.696601,495.689952L12.757282,495.621352Z M12.695555,494.913970L12.531917,495.199336L12.688892,495.279369L12.695555,494.913970Z M12.510148,493.990444L12.666653,494.834485L12.648120,494.503698L12.510148,493.990444Z M11.562727,493.807899L11.299298,494.913970L12.464015,494.868785L11.562727,493.807899Z M12.159596,498.882942L12.283384,499.020060L12.283643,498.939950L12.159596,498.882942Z M11.985060,493.192053L11.985739,493.454321L12.091297,493.260576L11.985060,493.192053Z M11.849923,496.875646L12.040271,496.989978L12.025272,496.944167L11.849923,496.875646Z M11.740999,492.952574L11.633678,493.214920L11.871410,493.910644L11.740999,492.952574Z M10.713797,479.413905L10.208751,482.539325L10.921267,483.246397L10.713797,479.413905Z M11.558950,496.738917L11.510568,496.830070L11.524268,496.864604L11.558950,496.738917Z M11.272976,487.751718L10.868214,488.835296L11.604888,488.572860L11.272976,487.751718Z M11.255363,493.089229L11.094652,493.739611L11.471611,493.853633L11.255363,493.089229Z M11.287290,488.629874L11.344284,488.949323L11.355736,488.880875L11.287290,488.629874Z M11.413101,491.823067L11.206997,491.994573L11.323840,492.154410L11.413101,491.823067Z M11.314549,491.481386L11.336602,491.754935L11.395468,491.754935L11.314549,491.481386Z M11.180190,492.017206L11.161969,492.199910L11.215077,492.234054L11.180190,492.017206Z M11.165304,474.545395L11.038208,474.714345L11.087313,474.714345L11.165304,474.545395Z M9.411033,472.775036L8.858356,477.029809L8.155891,478.227699L9.411033,472.775036Z M10.124259,483.155233L9.893965,483.702687L10.169611,483.622880L10.124259,483.155233Z M10.782699,482.904296L10.653548,483.143642L10.638929,483.269267L10.782699,482.904296Z M10.285224,487.877258L9.560049,488.230855L9.931153,489.394075L10.285224,487.877258Z M10.582166,483.873815L10.376042,484.124749L10.746243,483.930831L10.582166,483.873815Z M10.211105,492.986718L10.217709,493.043729L10.297895,493.055241L10.211105,492.986718Z M9.834000,496.704852L10.026085,497.092564L10.045310,496.830070L9.834000,496.704852Z M9.639978,496.727484L9.686468,496.875646L9.675979,496.784494L9.639978,496.727484Z M9.531445,483.464048L9.490850,483.451673L9.511595,483.543072L9.531445,483.464048Z M9.278880,496.237263L9.220766,496.328338L9.359789,496.430924L9.278880,496.237263Z M9.328550,496.157309L9.309636,496.248697L9.351423,496.271485L9.328550,496.157309Z M9.225003,495.940702L9.197382,496.214397L9.289118,496.157309L9.225003,495.940702Z M8.518034,474.999454L6.755779,477.440464L8.591984,477.759949L8.518034,474.999454Z M6.916894,477.474692L7.102924,481.033606L8.011993,478.090789L6.916894,477.474692Z M5.955743,480.474702L3.872566,486.326038L7.805970,486.428556L5.955743,480.474702Z M5.656135,480.679984L5.443092,481.124929L5.429402,481.592350L5.656135,480.679984Z M1.952769,489.257337L1.922862,489.336905L1.986600,489.462601L1.952769,489.257337Z M1.689222,477.383366L1.406668,478.729518L1.507014,478.501127L1.689222,477.383366Z M1.059828,481.535332L1.095997,482.345403L1.183590,482.505099L1.059828,481.535332Z M179.142856,605.336226L179.224387,605.723698L179.555567,605.587261L179.142856,605.336226Z M64.575333,570.498260L64.967452,571.307738L64.997546,571.216465L64.575333,570.498260Z M64.637546,572.470406L64.458994,572.732717L64.513813,572.880897L64.637546,572.470406Z M171.357846,589.228180L171.440288,590.972656L172.007011,591.907436L171.357846,589.228180Z M172.416170,590.596458L172.293086,590.733050L172.326602,590.949799L172.416170,590.596458Z M171.382170,590.892735L171.307222,591.018213L171.611436,591.633937L171.382170,590.892735Z M170.687842,592.488876L170.847525,592.865074L171.083269,592.944681L170.687842,592.488876Z M168.733125,578.478232L168.625071,578.660775L168.680696,578.717683L168.733125,578.478232Z M168.458161,578.489739L167.998513,579.241907L168.120469,579.275958L168.458161,578.489739Z M167.379830,581.692926L167.348057,581.670304L167.324069,581.806976L167.379830,581.692926Z " data-name-1="Gujarat"/><path d="M823.212386,353.563764L850.165157,349.354204L874.571366,351.146350L898.653328,324.696165L927.207414,313.415902L946.312396,314.936070L951.650429,332.518054L956.242061,334.243833L930.468774,347.374945L930.378503,347.435763L930.478925,347.865092L931.693314,350.418075L932.188016,354.219173L934.918805,362.092196L934.972136,361.872323L941.355778,361.663896L965.933898,337.784803L982.012229,334.243833L998.932386,343.579127L987.334294,320.813627L998.558935,307.634653L984.667920,292.949249L957.388324,286.990646L964.095409,276.944085L957.811535,263.843544L944.397229,264.450705L951.133919,256.279645L938.630065,248.175482L920.298916,265.568577L904.918136,261.617241L888.761264,252.928874L877.097998,263.646426L866.104642,280.569667L855.702403,280.054759L832.521429,304.911151L835.018825,310.842191L824.999598,316.541358L798.608270,316.302695L802.260963,329.357421L816.371713,331.492722L823.219999,353.551066L823.212386,353.563764Z " data-name-1="Arunachal Pradesh"/><path d="M230.385701,812.182439L239.832082,811.478290L241.062173,815.468960L246.564475,815.432038L246.662441,815.223933L246.482271,815.085132L256.123375,806.710951L257.160215,790.736329L247.883179,780.548254L276.130602,761.976701L296.976035,761.290573L295.343858,742.677838L321.238285,745.687597L318.406398,742.062357L332.918614,725.879707L330.978885,722.901284L343.759829,710.247975L346.440371,701.979845L357.657746,706.693275L358.039741,706.795144L358.189119,706.509347L363.712959,694.572842L365.069021,666.220197L374.188806,667.590230L377.504184,640.414298L393.264663,645.981577L412.091744,658.637958L412.668595,653.992350L430.019244,652.947355L439.141966,660.897179L452.846065,689.440739L453.083537,689.281874L452.662870,688.736300L453.031106,672.594473L460.212498,661.385947L470.576841,662.889992L468.970847,654.608404L456.629523,643.682629L452.675002,644.234309L449.809123,626.738090L457.718729,623.289764L454.210934,582.100829L454.154007,582.043295L453.982727,582.026152L440.982002,572.078467L422.174198,571.757134L401.334905,566.865493L392.091458,575.615305L367.916029,571.228911L355.322756,580.117753L340.279678,576.867045L341.310780,566.369281L323.644816,566.869094L306.126007,589.903708L286.921717,579.358541L257.193726,577.179764L237.126975,568.391857L228.166702,553.749415L219.915558,556.463919L219.879719,556.463136L219.604020,556.491395L208.583360,561.828194L211.891860,575.269630L209.960348,593.977308L217.872836,604.249895L213.346509,611.941287L199.419719,610.014400L202.666442,616.094496L195.370578,631.700968L195.181024,631.651650L195.301502,632.294345L194.252032,634.540190L186.320397,628.877273L186.023929,627.944319L185.988121,628.002560L181.591708,628.541055L180.518434,631.446003L178.070493,631.054907L178.075468,631.101094L179.573245,653.321338L185.854510,678.269073L193.592463,677.778714L188.495882,686.056984L214.007703,775.941700L230.383822,812.162313L230.385701,812.182439Z M198.250285,706.012296L198.174787,706.240463L198.223731,706.229032L198.250285,706.012296Z M194.251247,706.388686L194.144147,706.412098L194.150340,706.468553L194.251247,706.388686Z M189.072467,679.169621L189.125906,679.671570L189.367938,679.523436L189.072467,679.169621Z M188.085550,689.671794L188.050448,689.808501L188.080415,689.808579L188.085550,689.671794Z M187.023127,689.751501L187.041230,689.922659L187.114446,689.865580L187.023127,689.751501Z M200.543416,726.196679L200.580114,726.356340L200.600407,726.265117L200.543416,726.196679Z M222.054830,805.137146L222.064500,805.239809L222.104440,805.239809L222.054830,805.137146Z M221.946905,805.365102L221.912352,805.422307L221.989630,805.502181L221.946905,805.365102Z M221.253759,798.990124L221.163551,799.194744L221.320804,799.275167L221.253759,798.990124Z M220.423517,796.652223L220.423466,796.754807L220.473512,796.754807L220.423517,796.652223Z M180.788797,658.474958L180.698018,658.737230L180.897197,658.930997L180.788797,658.474958Z " data-name-1="Maharashtra"/><path d="M852.245155,483.617162L851.358816,480.070169L849.797641,462.224375L849.765559,462.134443L849.599880,462.153322L847.865148,457.598797L845.722259,451.768917L845.733219,451.845384L831.581797,466.658251L828.223430,464.314477L814.529077,476.520149L814.200934,489.097887L832.220450,514.668903L840.941630,509.613691L837.654603,502.116015L852.209321,483.619277L852.245155,483.617162Z " data-name-1="Tripura"/><path d="M358.039741,706.795144L358.471249,707.133402L362.836559,719.034927L358.723379,727.681160L364.744889,740.422720L360.236714,755.537515L358.165634,781.130789L366.385177,790.083549L367.017546,803.188714L366.926048,804.115338L367.744464,804.309974L388.522419,807.931036L405.894590,796.805316L411.129213,800.003593L417.042261,792.252146L427.004268,788.540246L427.051192,778.432211L454.845238,767.462606L458.662193,759.270719L481.199291,758.754597L481.617334,755.236191L500.196441,744.972429L510.496139,723.460447L510.274970,723.133688L509.223716,723.924393L505.801335,725.963805L500.966355,726.859284L497.668122,726.633065L497.341501,726.695786L497.326166,726.823186L475.278115,710.872818L472.366647,711.706492L453.225306,689.465324L453.083537,689.281874L452.846065,689.440739L439.141966,660.897179L430.019244,652.947355L412.668595,653.992350L412.091744,658.637958L393.264663,645.981577L377.504184,640.414298L374.188806,667.590230L365.069021,666.220197L363.712959,694.572842L358.189119,706.509347L358.039741,706.795144Z " data-name-1="Telangana"/><path d="M468.228454,1013.767815L468.215006,1013.243401L468.078067,1010.643489L467.924382,1007.188033L467.919818,1007.117798L463.652090,1006.580895L463.218711,1008.789071L468.229134,1013.778464L468.228454,1013.767815Z M298.372624,964.095262L301.013314,967.174031L299.563062,964.825021L301.164129,963.057351L301.219117,963.057547L301.649782,959.122910L298.372309,964.090642L298.372624,964.095262Z M464.604663,967.522194L459.895155,970.149521L463.649504,972.947227L463.644727,972.875778L464.065902,970.777606L464.276635,969.933569L464.606687,967.550421L464.604663,967.522194Z M533.744713,772.474693L533.258723,771.858724L533.189504,771.505321L535.135381,771.557004L535.137435,771.550896L535.138896,771.546824L535.140699,771.538445L530.818672,771.457631L533.751146,772.532798L533.744713,772.474693Z M534.701917,772.223795L534.256343,772.064047L533.708067,772.052536L533.788393,772.508914L533.791046,772.532876L534.001167,772.515648L534.710934,772.223795L534.701917,772.223795Z " data-name-1="Puducherry"/><path d="M246.662441,815.223933L246.767989,815.225969L255.449117,834.364996L254.940023,839.348188L248.442188,846.205615L248.443068,846.215638L259.110761,862.409408L271.561969,892.709280L283.164435,934.104427L283.164826,934.109791L295.642896,939.503250L317.576090,961.899288L330.128677,966.286967L342.141152,978.898863L342.364393,979.067169L342.654333,979.180078L357.304675,978.847576L358.973670,974.223795L377.510261,974.838060L378.286404,954.688007L382.908585,950.559449L392.605023,929.022594L403.601753,934.084421L403.903388,934.186213L404.057034,934.090098L415.156044,917.605394L406.830078,903.922987L395.996533,897.946849L393.709785,889.017361L385.984685,885.967012L382.058620,894.020074L373.167645,896.286241L360.932224,889.421289L351.615579,876.329653L368.418046,882.300954L373.633147,875.914250L368.331912,870.857671L350.578741,869.034780L345.184376,858.496536L347.556149,847.613287L344.639907,838.195862L356.346023,831.594519L352.450859,827.460620L354.197372,803.145566L366.468871,803.892002L366.926048,804.115338L367.017546,803.188714L366.385177,790.083549L358.165634,781.130789L360.236714,755.537515L364.744889,740.422720L358.723379,727.681160L362.836559,719.034927L358.471249,707.133402L358.039741,706.795144L357.657746,706.693275L346.440371,701.979845L343.759829,710.247975L330.978885,722.901284L332.918614,725.879707L318.406398,742.062357L321.238285,745.687597L295.343858,742.677838L296.976035,761.290573L276.130602,761.976701L247.883179,780.548254L257.160215,790.736329L256.123375,806.710951L246.482271,815.085132L246.662441,815.223933Z M276.557901,912.414716L276.464972,912.506212L276.551820,912.597434L276.557901,912.414716Z M276.367060,912.140933L276.400200,912.312336L276.538732,912.289589L276.367060,912.140933Z M274.956231,910.031590L274.849410,910.202602L274.909522,910.202602L274.956231,910.031590Z M274.702837,909.723666L274.680286,909.951800L274.807282,910.043570L274.702837,909.723666Z M274.193239,908.298291L274.275912,908.594704L274.347069,908.606293L274.193239,908.298291Z M265.366735,882.514488L265.243584,882.719761L265.338185,882.776767L265.366735,882.514488Z M261.470320,870.027878L261.329566,870.141224L261.529707,870.141302L261.470320,870.027878Z M259.703230,882.126728L259.784691,882.514488L259.821027,882.468916L259.703230,882.126728Z M259.279388,860.288200L259.367207,860.732386L259.680958,860.436393L259.279388,860.288200Z M254.249282,853.776513L254.157700,853.867661L254.218431,853.879172L254.249282,853.776513Z M251.078047,852.521859L251.162479,852.693075L251.187225,852.624479L251.078047,852.521859Z M249.421627,851.711825L249.713765,851.974658L249.450586,851.815071L249.421627,851.711825Z M248.660865,848.245531L248.654814,848.405158L248.795429,848.302499L248.660865,848.245531Z M248.528047,848.553470L248.499172,848.564785L248.564156,848.621870L248.528047,848.553470Z M248.494220,846.911233L248.389361,846.968240L248.403498,847.013892L248.494220,846.911233Z M247.512485,849.260496L247.479713,849.340290L247.576450,849.305991L247.512485,849.260496Z M247.258072,849.431516L247.192196,849.477286L247.252196,849.477286L247.258072,849.431516Z " data-name-1="Karnataka"/><path d="M385.199702,273.766034L390.183694,258.992612L386.318143,248.876218L388.179531,236.400868L406.090846,216.334004L374.434818,199.899675L374.368868,195.667371L348.605675,186.862097L338.544371,179.520052L329.844256,167.667902L323.570485,174.664521L323.497040,174.651034L293.511455,178.911920L285.640705,187.308393L291.943354,203.882684L284.515976,209.359585L284.593321,209.587471L284.731092,209.573121L298.786907,216.029531L294.046787,228.794023L299.917842,239.681728L308.269717,244.485207L316.621919,234.474158L339.331965,248.397937L341.653383,260.665454L350.589168,262.185486L367.221971,273.447593L385.473021,274.075326L385.199702,273.766034Z M335.735885,195.245905L335.369789,194.983094L335.369789,194.983094L335.735885,195.245905Z M334.145620,194.188250L333.808067,194.159040L333.808067,194.159040L334.145620,194.188250Z M343.494449,201.568409L343.240600,201.641931L343.240600,201.641931L343.494449,201.568409Z M371.443303,238.104879L371.305855,237.920648L371.305855,237.920648L371.443303,238.104879Z M373.435785,216.551030L373.112953,216.232747L373.112953,216.232747L373.435785,216.551030Z M373.693244,246.802754L373.984135,246.973627L373.984135,246.973627L373.693244,246.802754Z M384.342274,262.056715L384.795549,261.926771L384.795549,261.926771L384.342274,262.056715Z M335.487449,209.048485L335.190012,208.952403L335.190012,208.952403L335.487449,209.048485Z M381.606244,246.894168L381.290771,246.632039L381.290771,246.632039L381.606244,246.894168Z M374.540925,217.786995L374.550539,216.727648L374.550539,216.727648L374.540925,217.786995Z " data-name-1="Uttaranchal"/><path d="M887.895774,470.279776L877.614690,468.748325L875.015774,467.757344L874.533284,456.435958L873.602057,455.910195L873.527262,455.979999L863.076233,457.112448L858.086661,465.236092L850.002529,462.094961L849.765559,462.134443L849.797641,462.224375L851.358816,480.070169L852.245155,483.617162L852.272433,483.637682L860.323575,503.586520L860.828556,513.122026L869.899251,533.277795L889.306754,555.237166L890.532804,546.024640L888.164254,517.339959L895.865076,507.840931L887.949783,470.411528L887.895774,470.279776Z M875.460258,503.346044L875.232940,503.464285L875.232940,503.464285L875.460258,503.346044Z " data-name-1="Mizoram"/><path d="M335.438507,355.936098L335.680668,355.871120L349.780105,359.224953L364.681461,366.365560L364.564340,405.729691L348.193670,415.994178L351.648746,431.413885L349.299146,440.311333L359.601317,460.247970L361.881679,456.432354L378.091710,457.677531L365.302461,435.723849L362.760767,412.356767L375.255063,425.511924L404.833458,427.173639L406.622138,420.717670L418.484715,414.639608L427.453930,427.083665L438.976599,423.777048L439.313540,433.677792L455.195176,424.493262L489.259499,438.605186L494.107747,446.678492L509.555068,451.390653L515.864997,473.808180L516.149758,473.989821L516.596023,473.911729L529.895503,475.239367L530.308750,473.406986L533.363708,468.101067L533.557843,468.311389L534.049949,467.936804L536.466431,457.492409L533.430711,453.758691L536.722215,450.936702L537.109755,450.825447L537.078389,450.746942L527.960885,429.300457L529.318261,421.152368L558.443067,400.797129L564.383781,402.995248L545.995188,386.200918L548.881730,377.044007L538.291966,371.793053L543.446555,365.870693L554.986354,364.521872L544.800240,356.000684L529.926793,334.780735L529.772208,334.667587L512.517820,329.500800L501.714699,330.603427L459.968725,311.034927L453.644336,312.096993L421.670352,289.589695L401.951645,280.823329L402.601903,284.745767L385.668636,274.295213L385.473021,274.075326L367.221971,273.447593L350.589168,262.185486L341.653383,260.665454L339.331965,248.397937L316.621919,234.474158L308.269717,244.485207L299.917842,239.681728L294.046787,228.794023L298.786907,216.029531L284.731092,209.573121L284.593321,209.587471L284.810495,209.821755L285.036407,210.053545L285.176980,210.184415L285.180085,210.404041L285.539932,210.533197L277.721134,224.739549L276.004075,246.110838L284.194177,272.351814L284.362103,272.554869L284.605155,272.615097L285.282200,275.488780L292.372935,286.958637L292.457319,287.233957L292.689903,287.453870L298.843707,297.052243L301.559763,311.085128L295.686281,316.060039L295.642253,316.067872L295.794453,316.221784L304.108176,332.800757L318.690759,351.759024L335.486958,355.838670L335.438507,355.936098Z M483.618297,339.499142L483.593195,339.367335L483.593195,339.367335L483.618297,339.499142Z M445.680951,320.709363L445.787877,320.961524L445.787877,320.961524L445.680951,320.709363Z M291.457105,263.544388L291.259459,262.708317L291.259459,262.708317L291.457105,263.544388Z M420.312726,375.947053L419.657004,375.163674L419.657004,375.163674L420.312726,375.947053Z M339.553100,321.519981L339.504827,321.888869L339.504827,321.888869L339.553100,321.519981Z M501.920159,421.101421L501.924104,421.233727L501.924104,421.233727L501.920159,421.101421Z M503.501075,408.831735L503.578729,408.867481L503.578729,408.867481L503.501075,408.831735Z M510.300191,423.870318L510.266687,423.936939L510.266687,423.936939L510.300191,423.870318Z M489.096966,330.121020L488.823637,330.042669L488.823637,330.042669L489.096966,330.121020Z M461.331082,334.342484L461.487531,334.725728L461.487531,334.725728L461.331082,334.342484Z M509.142132,364.617661L508.837122,364.852276L508.837122,364.852276L509.142132,364.617661Z M512.845838,368.705530L512.661468,368.923953L512.661468,368.923953L512.845838,368.705530Z M489.950711,414.756716L490.107934,414.777645L490.107934,414.777645L489.950711,414.756716Z M491.476520,409.841932L491.498483,409.876031L491.498483,409.876031L491.476520,409.841932Z M507.859843,420.756233L507.627647,420.779669L507.627647,420.779669L507.859843,420.756233Z M503.355206,420.516310L503.267864,420.641170L503.267864,420.641170L503.355206,420.516310Z M496.022522,421.688252L495.988691,421.896272L495.988691,421.896272L496.022522,421.688252Z M489.640543,423.619195L489.521751,423.694830L489.521751,423.694830L489.640543,423.619195Z M412.728800,378.821216L412.494238,378.900522L412.494238,378.900522L412.728800,378.821216Z M323.002883,316.429585L323.377027,316.990255L323.377027,316.990255L323.002883,316.429585Z M337.611001,316.506744L337.699047,316.544178L337.699047,316.544178L337.611001,316.506744Z M329.340973,333.196292L329.120303,333.324873L329.120303,333.324873L329.340973,333.196292Z M326.867889,334.524820L326.732140,334.855096L326.732140,334.855096L326.867889,334.524820Z M323.635238,336.093002L323.803438,336.304102L323.803438,336.304102L323.635238,336.093002Z M292.257975,273.604270L291.879314,273.071977L291.879314,273.071977L292.257975,273.604270Z " data-name-1="Uttar Pradesh"/></g><g fill="#000" font-family="Arial" font-size="12px" id="layer_0-label" stroke="none"><text text-anchor="middle" y="252.179152952"><tspan dy="0" x="251.878119514"><![CDATA[Haryana]]></tspan></text><text text-anchor="middle" y="185.054168183"><tspan dy="0" x="205.776716692"><![CDATA[Punjab]]></tspan></text><text text-anchor="middle" y="820.991820085"><tspan dy="0" x="245.160979645"><![CDATA[Goa]]></tspan></text><text text-anchor="middle" y="578.155136071"><tspan dy="0" x="504.044317513"><![CDATA[Chhattisgarh]]></tspan></text><text text-anchor="middle" y="1020.54072669"><tspan dy="0" x="343.861462964"><![CDATA[Kerala]]></tspan></text><text text-anchor="middle" y="597.903458903"><tspan dy="0" x="108.991833401"><![CDATA[Daman and Diu]]></tspan></text><text text-anchor="middle" y="987.061426347"><tspan dy="0" x="938.547103971"><![CDATA[Andaman and Nicobar]]></tspan></text><text text-anchor="middle" y="608.851142976"><tspan dy="0" x="592.557937527"><![CDATA[Orissa]]></tspan></text><text text-anchor="middle" y="999.645246596"><tspan dy="0" x="415.26017519"><![CDATA[Tamil Nadu]]></tspan></text><text text-anchor="middle" y="190.02261576"><tspan dy="0" x="254.336430948"><![CDATA[Chandigarh]]></tspan></text><text text-anchor="middle" y="65.5004737577"><tspan dy="0" x="219.240077111"><![CDATA[Jammu and Kashmir]]></tspan></text><text text-anchor="middle" y="623.814430424"><tspan dy="0" x="190.756829972"><![CDATA[Dadra and Nagar Haveli]]></tspan></text><text text-anchor="middle" y="481.201631566"><tspan dy="0" x="615.100862711"><![CDATA[Jharkhand]]></tspan></text><text text-anchor="middle" y="403.622493273"><tspan dy="0" x="804.431675376"><![CDATA[Meghalaya]]></tspan></text><text text-anchor="middle" y="275.059169869"><tspan dy="0" x="283.91207981"><![CDATA[Delhi]]></tspan></text><text text-anchor="middle" y="397.608936695"><tspan dy="0" x="603.242591041"><![CDATA[Bihar]]></tspan></text><text text-anchor="middle" y="370.466449603"><tspan dy="0" x="853.191911771"><![CDATA[Assam]]></tspan></text><text text-anchor="middle" y="485.705623809"><tspan dy="0" x="357.897880427"><![CDATA[Madhya Pradesh]]></tspan></text><text text-anchor="middle" y="1062.71064901"><tspan dy="0" x="223.984720716"><![CDATA[Lakshadweep]]></tspan></text><text text-anchor="middle" y="435.62328634"><tspan dy="0" x="901.858229028"><![CDATA[Manipur]]></tspan></text><text text-anchor="middle" y="359.475492314"><tspan dy="0" x="183.188442476"><![CDATA[Rajasthan]]></tspan></text><text text-anchor="middle" y="320.46097764"><tspan dy="0" x="689.631017903"><![CDATA[Sikkim]]></tspan></text><text text-anchor="middle" y="470.54765507"><tspan dy="0" x="697.614619164"><![CDATA[West Bengal]]></tspan></text><text text-anchor="middle" y="804.197790657"><tspan dy="0" x="455.629320549"><![CDATA[Andhra Pradesh]]></tspan></text><text text-anchor="middle" y="141.214278938"><tspan dy="0" x="259.347155254"><![CDATA[Himachal Pradesh]]></tspan></text><text text-anchor="middle" y="380.158220789"><tspan dy="0" x="915.045859853"><![CDATA[Nagaland]]></tspan></text><text text-anchor="middle" y="520.01154918"><tspan dy="0" x="125.939565167"><![CDATA[Gujarat]]></tspan></text><text text-anchor="middle" y="300.412339258"><tspan dy="0" x="903.62240565"><![CDATA[Arunachal Pradesh]]></tspan></text><text text-anchor="middle" y="652.698221729"><tspan dy="0" x="300.259955645"><![CDATA[Maharashtra]]></tspan></text><text text-anchor="middle" y="477.119398622"><tspan dy="0" x="833.86192021"><![CDATA[Tripura]]></tspan></text><text text-anchor="middle" y="720.433863904"><tspan dy="0" x="414.678090819"><![CDATA[Telangana]]></tspan></text><text text-anchor="middle" y="975.23390375"><tspan dy="0" x="436.314270473"><![CDATA[Puducherry]]></tspan></text><text text-anchor="middle" y="847.042529435"><tspan dy="0" x="322.641012756"><![CDATA[Karnataka]]></tspan></text><text text-anchor="middle" y="213.8891401"><tspan dy="0" x="343.767657269"><![CDATA[Uttaranchal]]></tspan></text><text text-anchor="middle" y="492.656578757"><tspan dy="0" x="874.31906691"><![CDATA[Mizoram]]></tspan></text><text text-anchor="middle" y="345.835279864"><tspan dy="0" x="416.49578194"><![CDATA[Uttar Pradesh]]></tspan></text></g></svg>